<svg width="417" height="344" viewBox="0 0 550 454" fill="none" xmlns="http://www.w3.org/2000/svg">
<path d="M11.3797 404.17L88.7926 420.113L228.748 385.778C230.694 390.718 231.535 396.016 231.215 401.308C230.894 406.6 229.419 411.761 226.891 416.435L86.9349 451.999L6.44092 433.602" fill="white"/>
<path d="M11.3797 404.17L88.7926 420.113L228.748 385.778C230.694 390.718 231.535 396.016 231.215 401.308C230.894 406.6 229.419 411.761 226.891 416.435L86.9349 451.999L6.44092 433.602" stroke="#231F20" stroke-width="4" stroke-linecap="round" stroke-linejoin="round"/>
<path d="M20.3953 404.51C13.7865 403.339 7.14634 405.62 3.32839 410.506C-1.64164 416.872 -1.08346 426.718 5.25746 433.399L86.1757 450.292C86.3775 440.069 87.8564 429.91 90.5786 420.047L20.3953 404.51Z" fill="white"/>
<path d="M88.7921 420.114C84.5918 424.281 82.0824 429.83 81.74 435.707C81.3976 441.585 83.246 447.382 86.9345 452" fill="white"/>
<path d="M88.7921 420.114C84.5918 424.281 82.0824 429.83 81.74 435.707C81.3976 441.585 83.246 447.382 86.9345 452" stroke="#231F20" stroke-width="4" stroke-linecap="round" stroke-linejoin="round"/>
<path d="M6.6333 408.26L79.286 423.734C79.4026 423.756 79.5135 423.802 79.6122 423.867C79.711 423.932 79.7956 424.016 79.861 424.115C79.9265 424.213 79.9715 424.323 79.9935 424.438C80.0154 424.554 80.0139 424.673 79.989 424.788C79.964 424.903 79.9161 425.012 79.8482 425.108C79.7802 425.204 79.6935 425.286 79.5931 425.349C79.4927 425.412 79.3807 425.455 79.2635 425.474C79.1464 425.493 79.0265 425.49 78.9109 425.463V425.463L6.6333 408.26Z" fill="#231F20"/>
<path d="M3.12402 417.456C9.54235 418.842 15.9428 420.27 22.3254 421.74C28.7244 423.182 35.1055 424.698 41.4911 426.206C47.8767 427.713 54.2622 429.217 60.621 430.813C66.9798 432.409 73.3386 434.04 79.6572 435.795C79.8149 435.857 79.9444 435.973 80.0217 436.123C80.099 436.272 80.1187 436.444 80.0771 436.606C80.0355 436.769 79.9354 436.911 79.7957 437.006C79.6559 437.101 79.486 437.142 79.3178 437.122C72.9099 435.711 66.5377 434.168 60.1656 432.603C53.7934 431.038 47.4524 429.376 41.1071 427.705C34.7617 426.033 28.4163 424.393 22.0843 422.669C15.7523 420.945 9.43816 419.242 3.12402 417.456Z" fill="#231F20"/>
<path d="M5.3916 426.042L77.0262 442.144C77.2508 442.201 77.444 442.343 77.5649 442.539C77.6858 442.735 77.7248 442.97 77.6737 443.194C77.6226 443.418 77.4855 443.614 77.2913 443.74C77.0971 443.865 76.8611 443.911 76.6332 443.868H76.6109L5.3916 426.042Z" fill="#231F20"/>
<path d="M11.3813 404.171L148.658 373.311L228.75 385.779L88.7942 420.114L11.3813 404.171Z" fill="white" stroke="#231F20" stroke-width="4" stroke-linecap="round" stroke-linejoin="round"/>
<path d="M29.9863 374.446L99.1694 388.696L224.246 358.008C225.987 362.424 226.74 367.162 226.454 371.894C226.168 376.626 224.849 381.24 222.59 385.419L97.5082 417.19L25.561 400.748" fill="white"/>
<path d="M29.9863 374.446L99.1694 388.696L224.246 358.008C225.987 362.424 226.74 367.162 226.454 371.894C226.168 376.626 224.849 381.24 222.59 385.419L97.5082 417.19L25.561 400.748" stroke="#231F20" stroke-width="4" stroke-linecap="round" stroke-linejoin="round"/>
<path d="M38.0419 374.752C32.1386 373.699 26.1996 375.742 22.7924 380.11C18.327 385.796 18.845 394.598 24.5116 400.567L96.8517 415.666C97.033 406.529 98.3559 397.449 100.79 388.634L38.0419 374.752Z" fill="white"/>
<path d="M99.1711 388.696C95.4174 392.42 93.1748 397.378 92.8686 402.63C92.5624 407.883 94.2139 413.064 97.5099 417.19" fill="white"/>
<path d="M99.1711 388.696C95.4174 392.42 93.1748 397.378 92.8686 402.63C92.5624 407.883 94.2139 413.064 97.5099 417.19" stroke="#231F20" stroke-width="4" stroke-linecap="round" stroke-linejoin="round"/>
<path d="M25.7451 378.098L90.6949 391.853C90.9189 391.909 91.1123 392.048 91.2345 392.242C91.3566 392.436 91.3981 392.67 91.3501 392.894C91.3022 393.117 91.1685 393.314 90.9772 393.442C90.786 393.57 90.5519 393.62 90.3243 393.581V393.581L25.7451 378.098Z" fill="#231F20"/>
<path d="M22.6104 386.321C28.3499 387.532 34.0776 388.791 39.7934 390.096C45.5181 391.37 51.2204 392.718 56.9273 394.076C62.6341 395.433 68.3454 396.728 74.0299 398.178C79.7144 399.629 85.3944 401.07 91.0387 402.657C91.1964 402.719 91.326 402.835 91.4033 402.984C91.4806 403.133 91.5002 403.305 91.4586 403.468C91.417 403.631 91.317 403.773 91.1772 403.868C91.0375 403.962 90.8676 404.004 90.6994 403.983C84.9658 402.737 79.2678 401.362 73.5744 399.965C67.881 398.567 62.2143 397.073 56.5477 395.574C50.8811 394.076 45.2055 392.599 39.5522 391.043C33.899 389.486 28.2457 387.935 22.6104 386.321Z" fill="#231F20"/>
<path d="M24.6362 393.993L88.6751 408.291C88.8997 408.349 89.0929 408.491 89.2138 408.687C89.3347 408.883 89.3737 409.118 89.3226 409.342C89.2715 409.566 89.1344 409.762 88.9402 409.887C88.746 410.013 88.51 410.059 88.2821 410.016H88.2598L24.6362 393.993Z" fill="#231F20"/>
<path d="M29.9878 374.447L152.671 346.872L224.248 358.013L99.1709 388.697L29.9878 374.447Z" fill="white" stroke="#231F20" stroke-width="4" stroke-linecap="round" stroke-linejoin="round"/>
<path d="M39.2815 346.033L102.49 359.049L216.765 331.014C218.353 335.047 219.04 339.374 218.778 343.695C218.516 348.017 217.311 352.23 215.247 356.047L100.972 385.085L35.2358 370.053" fill="#0D4E32"/>
<path d="M39.2815 346.033L102.49 359.049L216.765 331.014C218.353 335.047 219.04 339.374 218.778 343.695C218.516 348.017 217.311 352.23 215.247 356.047L100.972 385.085L35.2358 370.053" stroke="#0D4E32" stroke-width="4" stroke-linecap="round" stroke-linejoin="round"/>
<path d="M46.6305 346.311C41.2362 345.351 35.8107 347.195 32.6983 351.205C28.6392 356.404 29.0947 364.442 34.2701 369.898L100.359 383.692C100.52 375.344 101.727 367.049 103.953 358.995L46.6305 346.311Z" fill="white" stroke="#231F20" stroke-width="4" stroke-linecap="round" stroke-linejoin="round"/>
<path d="M103.948 359.049C102.546 360.163 97.4462 364.487 96.7719 371.397C96.0485 378.79 100.898 383.931 102.046 385.103" fill="#231F20"/>
<path d="M103.948 359.049C102.546 360.163 97.4462 364.487 96.7719 371.397C96.0485 378.79 100.898 383.931 102.046 385.103" stroke="#231F20" stroke-width="4" stroke-linecap="round" stroke-linejoin="round"/>
<path d="M35.4053 349.369L94.5679 362.721Z" fill="white"/>
<path d="M35.4053 349.369L94.7644 361.859C94.9884 361.915 95.1817 362.055 95.3039 362.249C95.4261 362.443 95.4675 362.676 95.4196 362.9C95.3716 363.124 95.2379 363.32 95.0467 363.449C94.8554 363.577 94.6214 363.627 94.3937 363.588H94.3669L35.4053 349.369Z" fill="#231F20"/>
<path d="M32.5361 356.883L94.9005 372.401Z" fill="white"/>
<path d="M32.5361 356.883C43.0299 359.067 53.4835 361.432 63.9148 363.873C74.3461 366.313 84.7639 368.811 95.0702 371.734C95.2278 371.795 95.3574 371.911 95.4347 372.061C95.512 372.21 95.5317 372.382 95.49 372.545C95.4484 372.707 95.3484 372.849 95.2086 372.944C95.0689 373.039 94.899 373.08 94.7308 373.06C84.2549 370.81 73.8816 368.139 63.5218 365.403C53.162 362.666 42.829 359.867 32.5361 356.883Z" fill="#231F20"/>
<path d="M34.3892 363.888L92.7123 377.74Z" fill="white"/>
<path d="M34.3892 363.888L92.9177 376.877C93.0323 376.902 93.1408 376.95 93.237 377.016C93.3331 377.083 93.4151 377.168 93.4781 377.266C93.5411 377.364 93.584 377.474 93.6043 377.588C93.6246 377.703 93.6219 377.82 93.5964 377.934C93.5709 378.047 93.5231 378.155 93.4556 378.25C93.3882 378.345 93.3025 378.426 93.2034 378.489C93.1043 378.551 92.9937 378.593 92.878 378.614C92.7624 378.634 92.6438 378.631 92.5292 378.606H92.5024L34.3892 363.888Z" fill="#231F20"/>
<path d="M39.2793 346.031L151.362 320.83L216.763 330.999L102.488 359.047L39.2793 346.031Z" fill="#231F20" stroke="#231F20" stroke-width="4" stroke-linecap="round" stroke-linejoin="round"/>
<path d="M25.8697 321.383L89.4977 332.144L202.697 300.055C204.432 304.029 205.276 308.329 205.171 312.657C205.067 316.986 204.015 321.24 202.089 325.128L88.9396 358.211L22.6992 345.545" fill="white"/>
<path d="M25.8697 321.383L89.4977 332.144L202.697 300.055C204.432 304.029 205.276 308.329 205.171 312.657C205.067 316.986 204.015 321.24 202.089 325.128L88.9396 358.211L22.6992 345.545" stroke="#231F20" stroke-width="4" stroke-linecap="round" stroke-linejoin="round"/>
<path d="M33.2345 321.4C27.8089 320.63 22.4549 322.686 19.4854 326.785C15.6183 332.125 16.3596 340.145 21.7181 345.411L88.2532 356.844C88.1117 348.496 89.0116 340.162 90.9324 332.033L33.2345 321.4Z" fill="white"/>
<path d="M89.4978 332.145C86.1906 335.668 84.3053 340.271 84.2 345.08C84.0946 349.888 85.7765 354.568 88.9262 358.23" fill="white"/>
<path d="M89.4978 332.145C86.1906 335.668 84.3053 340.271 84.2 345.08C84.0946 349.888 85.7765 354.568 88.9262 358.23" stroke="#231F20" stroke-width="4" stroke-linecap="round" stroke-linejoin="round"/>
<path d="M22.1196 324.86L81.9074 335.227C82.0233 335.247 82.1342 335.289 82.2337 335.351C82.3332 335.413 82.4193 335.494 82.487 335.589C82.5548 335.684 82.6029 335.792 82.6286 335.905C82.6544 336.019 82.6571 336.137 82.6369 336.251C82.6166 336.366 82.5736 336.476 82.5104 336.574C82.4472 336.672 82.3651 336.757 82.2687 336.824C82.1723 336.89 82.0635 336.937 81.9486 336.962C81.8338 336.987 81.7151 336.99 81.5993 336.969H81.5725L22.1196 324.86Z" fill="#231F20"/>
<path d="M19.5293 332.462C30.0945 334.275 40.624 336.269 51.1401 338.334C61.6563 340.398 72.1545 342.529 82.559 345.08C82.7096 345.142 82.8336 345.255 82.9092 345.398C82.9848 345.541 83.0073 345.706 82.9728 345.864C82.9383 346.021 82.8489 346.162 82.7202 346.261C82.5915 346.361 82.4318 346.412 82.2687 346.407C71.7169 344.528 61.2544 342.229 50.8052 339.863C40.3561 337.498 29.9204 335.08 19.5293 332.462Z" fill="#231F20"/>
<path d="M21.6245 339.403L80.5683 350.301C80.6856 350.321 80.7979 350.363 80.8984 350.426C80.999 350.489 81.0859 350.571 81.1541 350.667C81.2222 350.764 81.2702 350.873 81.2952 350.988C81.3202 351.103 81.3218 351.222 81.2998 351.337C81.2778 351.453 81.2326 351.563 81.1671 351.661C81.1015 351.76 81.0167 351.844 80.9178 351.909C80.8189 351.975 80.7078 352.02 80.5911 352.042C80.4743 352.064 80.3542 352.063 80.2379 352.039H80.2111L21.6245 339.403Z" fill="#231F20"/>
<path d="M25.8716 321.384L136.976 292.204L202.699 300.056L89.4996 332.145L25.8716 321.384Z" fill="white" stroke="#231F20" stroke-width="4" stroke-linecap="round" stroke-linejoin="round"/>
<path d="M47.1473 284.48L108.998 302.819L225.283 284.586C226.517 288.74 226.828 293.108 226.193 297.392C225.557 301.675 223.992 305.772 221.603 309.398L105.229 328.626L41.0386 308.081" fill="white"/>
<path d="M47.1473 284.48L108.998 302.819L225.283 284.586C226.517 288.74 226.828 293.108 226.193 297.392C225.557 301.675 223.992 305.772 221.603 309.398L105.229 328.626L41.0386 308.081" stroke="#231F20" stroke-width="4" stroke-linecap="round" stroke-linejoin="round"/>
<path d="M54.4564 285.381C49.1649 283.97 43.601 285.381 40.167 289.077C35.6748 293.909 35.4292 301.96 40.1179 307.832L104.751 327.188C105.634 318.879 107.557 310.71 110.475 302.871L54.4564 285.381Z" fill="white"/>
<path d="M108.999 302.819C105.286 305.917 102.852 310.256 102.157 315.013C101.462 319.77 102.556 324.614 105.23 328.626" fill="white"/>
<path d="M108.999 302.819C105.286 305.917 102.852 310.256 102.157 315.013C101.462 319.77 102.556 324.614 105.23 328.626" stroke="#231F20" stroke-width="4" stroke-linecap="round" stroke-linejoin="round"/>
<path d="M42.999 287.476L101.05 304.957C101.162 304.991 101.266 305.047 101.357 305.121C101.448 305.195 101.523 305.285 101.578 305.388C101.633 305.491 101.667 305.603 101.679 305.719C101.69 305.835 101.678 305.951 101.644 306.063C101.609 306.174 101.553 306.277 101.479 306.367C101.404 306.457 101.312 306.531 101.208 306.585C101.105 306.64 100.991 306.674 100.874 306.685C100.758 306.696 100.64 306.685 100.527 306.651H100.505L42.999 287.476Z" fill="#231F20"/>
<path d="M39.4858 294.702C49.7564 297.797 59.9599 301.02 70.1411 304.336C80.3223 307.651 90.4856 311.025 100.506 314.809C100.684 314.868 100.831 314.994 100.914 315.16C100.998 315.326 101.012 315.518 100.953 315.694C100.893 315.87 100.766 316.015 100.599 316.098C100.431 316.181 100.237 316.194 100.06 316.136C89.789 313.001 79.7105 309.46 69.6276 305.856C59.5446 302.253 49.4884 298.566 39.4858 294.702Z" fill="#231F20"/>
<path d="M40.731 301.858L97.9199 319.768C98.1461 319.839 98.3345 319.996 98.4438 320.205C98.5531 320.413 98.5742 320.656 98.5026 320.88C98.4309 321.104 98.2724 321.291 98.0618 321.399C97.8511 321.507 97.6057 321.528 97.3795 321.457H97.3572L40.731 301.858Z" fill="#231F20"/>
<path d="M47.1484 284.479L161.017 268.89L225.293 284.585L108.999 302.818L47.1484 284.479Z" fill="white" stroke="#231F20" stroke-width="4" stroke-linecap="round" stroke-linejoin="round"/>
<path d="M211.075 258.62L153.252 276.614L44.2367 257.766C43.1042 261.927 42.8369 266.273 43.4509 270.539C44.065 274.806 45.5477 278.904 47.8091 282.587L156.927 302.433L216.933 282.242" fill="#0D4E32"/>
<path d="M211.075 258.62L153.252 276.614L44.2367 257.766C43.1042 261.927 42.8369 266.273 43.4509 270.539C44.065 274.806 45.5477 278.904 47.8091 282.587L156.927 302.433L216.933 282.242" stroke="#231F20" stroke-width="4" stroke-linecap="round" stroke-linejoin="round"/>
<path d="M204.232 259.481C209.179 258.098 214.4 259.526 217.655 263.253C221.888 268.116 222.16 276.154 217.807 281.999L157.371 300.997C156.5 292.707 154.657 284.547 151.879 276.68L204.232 259.481Z" fill="white"/>
<path d="M158.713 302.302C156.78 301.334 149.72 297.554 148.536 291.103C147.268 284.197 153.618 279.104 155.123 277.959" fill="white"/>
<path d="M158.713 302.302C156.78 301.334 149.72 297.554 148.536 291.103C147.268 284.197 153.618 279.104 155.123 277.959" stroke="#231F20" stroke-width="4" stroke-linecap="round" stroke-linejoin="round"/>
<path d="M214.976 261.639L161.244 280.482C161.133 280.521 161.016 280.538 160.899 280.532C160.782 280.526 160.667 280.497 160.561 280.447C160.455 280.397 160.36 280.327 160.281 280.241C160.203 280.155 160.142 280.054 160.103 279.945C160.064 279.835 160.046 279.719 160.052 279.603C160.058 279.487 160.087 279.374 160.138 279.269C160.188 279.164 160.259 279.07 160.346 278.992C160.433 278.914 160.535 278.854 160.645 278.815H160.672L214.976 261.639Z" fill="#231F20"/>
<path d="M218.303 268.895C208.975 272.684 199.584 276.3 190.171 279.851C180.758 283.401 171.314 286.88 161.722 289.962C161.551 290.013 161.367 289.998 161.207 289.919C161.047 289.84 160.925 289.703 160.864 289.537C160.803 289.371 160.809 289.188 160.881 289.026C160.952 288.864 161.084 288.735 161.248 288.667C170.599 284.939 180.102 281.593 189.622 278.356C199.142 275.12 208.689 271.91 218.303 268.895Z" fill="#231F20"/>
<path d="M217.181 276.026L164.279 295.294C164.06 295.363 163.823 295.345 163.616 295.245C163.41 295.145 163.251 294.97 163.171 294.756C163.092 294.543 163.099 294.307 163.19 294.098C163.282 293.89 163.451 293.724 163.663 293.636H163.69L217.181 276.026Z" fill="#231F20"/>
<path d="M211.074 258.62L104.35 242.425L44.2358 257.767L153.251 276.614L211.074 258.62Z" fill="#0D4E32" stroke="#231F20" stroke-width="4" stroke-linecap="round" stroke-linejoin="round"/>
<path d="M163.048 244.199L232.638 308.713L267.656 247.7L193.632 190.224L163.048 244.199Z" fill="white" stroke="#231F20" stroke-width="4" stroke-miterlimit="10"/>
<path d="M364.543 136.78C370.448 140.729 376.828 143.933 383.535 146.317C403.182 153.289 420.852 151.383 430.323 149.588C433.616 145.974 437.416 142.847 441.608 140.304C454.593 132.474 474.295 128.663 480.417 136.214C482.65 138.982 483.284 143.527 481.52 146.162C479.635 148.978 475.268 149.288 471.334 149.571C467.083 149.871 465.824 149.151 462.251 149.022C454.602 148.753 444.988 151.547 444.363 155.566C443.831 158.957 449.793 162.595 450.556 163.082C456.361 166.619 460.952 164.943 462.667 167.985C463.895 170.173 462.868 173.449 461.287 175.342C456.772 180.753 443.51 179.944 437.205 172.755C434.365 169.519 433.592 165.734 433.351 163.471C408.067 166.977 382.322 162.09 360.14 149.575C361.605 145.313 363.072 141.048 364.543 136.78Z" fill="white" stroke="#231F20" stroke-width="4" stroke-miterlimit="10"/>
<path d="M339.291 99.8544C345.599 110.454 354.113 119.603 364.266 126.695C369.259 130.156 374.61 133.079 380.23 135.414L373.898 142.775L360.948 155.309C342.246 143.771 327.557 126.844 318.853 106.8" fill="white"/>
<path d="M339.291 99.8544C345.599 110.454 354.113 119.603 364.266 126.695C369.259 130.156 374.61 133.079 380.23 135.414L373.898 142.775L360.948 155.309C342.246 143.771 327.557 126.844 318.853 106.8" stroke="#231F20" stroke-width="4" stroke-miterlimit="10"/>
<path d="M283.745 223.71L267.669 227.388C273.251 250.627 276.836 274.291 278.386 298.128C280.388 328.839 279.004 359.674 274.26 390.089L287.867 389.801C289.532 382.856 297.244 349.962 297.793 318.96C298.052 304.813 296.967 290.758 296.967 290.758C296.583 285.766 295.86 278.091 294.489 269.094C292.12 253.709 288.528 238.534 283.745 223.71Z" fill="#231F20"/>
<path d="M275.398 388.125C275.282 389.324 275.108 391.145 274.875 393.365C273.759 404.068 273.348 405.196 273.455 407.296C273.808 414.016 278.894 418.91 281.998 421.886C283.905 423.72 295.885 435.255 306.732 430.83C312.537 428.46 317.319 421.81 316.234 416.492C315.578 413.269 312.439 411.067 306.16 406.668C298.926 401.615 295.131 400.81 292.349 396.15C291.093 393.981 290.331 391.567 290.116 389.076L275.398 388.125Z" fill="white" stroke="#231F20" stroke-width="4" stroke-miterlimit="10"/>
<path d="M268.006 223.71C269.122 229.254 270.475 236.797 271.578 245.785C271.578 245.785 274.257 267.356 273.811 290.337C272.918 335.725 256.114 391.583 254.609 396.513L238.319 395.394C247.575 365.229 253.157 334.078 254.949 302.602C256.431 276.252 255.225 249.821 251.349 223.71H268.006Z" fill="#231F20"/>
<path d="M326.282 84.5251C312.902 94.4334 300.834 105.969 290.362 118.86C280.07 131.562 253.125 165.725 250.111 213.916C249.74 219.838 249.74 225.776 250.111 231.698H290.362C289.187 223.372 288.773 214.958 289.126 206.559C291.336 154.265 323.041 116.526 339.29 99.8534L326.282 84.5251Z" fill="white" stroke="#231F20" stroke-width="4" stroke-miterlimit="10"/>
<path d="M238.573 394.399C238.452 395.694 238.26 397.657 238.01 400.049C236.809 411.584 236.367 412.8 236.483 415.081C236.862 422.328 242.341 427.602 245.69 430.825C247.74 432.802 260.654 445.234 272.34 440.463C278.592 437.908 283.749 430.737 282.579 425.016C281.874 421.536 278.489 419.167 271.724 414.405C263.927 408.94 259.841 408.083 256.845 403.051C255.481 400.714 254.654 398.109 254.42 395.42L238.573 394.399Z" fill="white" stroke="#231F20" stroke-width="4" stroke-miterlimit="10"/>
<path d="M542.619 180.925L443.933 165.256C445.68 158.669 447.423 152.083 449.162 145.498L548.661 157.351" fill="white"/>
<path d="M542.565 181.268C538.43 180.773 534.301 180.23 530.178 179.641C526.055 179.051 521.933 178.455 517.813 177.85C513.699 177.228 509.586 176.587 505.475 175.927L493.142 173.969L480.808 172.001L468.484 169.985C464.375 169.313 460.267 168.659 456.163 167.942L443.852 165.851L443.196 165.736L443.361 165.104L448.59 145.35L448.724 144.846L449.251 144.903C457.548 145.845 465.849 146.756 474.141 147.742L486.582 149.192L499.014 150.691C507.306 151.69 515.598 152.672 523.882 153.728L530.093 154.515L536.305 155.338C540.443 155.883 544.578 156.456 548.71 157.057L548.638 157.654C544.481 157.261 540.324 156.854 536.175 156.407L529.924 155.749L523.699 155.055C515.397 154.135 507.105 153.14 498.813 152.167L486.377 150.7L473.972 149.188C465.679 148.197 457.4 147.132 449.112 146.093L449.769 145.651L444.54 165.409L444.053 164.666L456.409 166.492C460.526 167.099 464.642 167.724 468.756 168.367L481.098 170.268L493.436 172.218L505.77 174.176C509.878 174.828 513.988 175.491 518.099 176.166C522.21 176.841 526.313 177.55 530.406 178.293C534.505 179.012 538.598 179.777 542.686 180.587L542.565 181.268Z" fill="#231F20"/>
<path d="M457.159 152.992L549.089 163.077Z" fill="white"/>
<path d="M457.159 152.993C459.087 152.66 461.051 152.582 463 152.763C464.92 152.936 466.831 153.179 468.747 153.382L480.237 154.669L503.202 157.322L514.683 158.692L526.155 160.107L537.626 161.575L543.36 162.309L549.089 163.082L543.329 162.592L537.568 162.07L526.056 161.013L514.545 159.908L503.042 158.758L480.045 156.367L468.551 155.129C466.639 154.912 464.719 154.735 462.808 154.487C460.865 154.245 458.965 153.742 457.159 152.993V152.993Z" fill="#231F20"/>
<path d="M451.104 160.215L546.472 176.021Z" fill="white"/>
<path d="M451.252 159.342L546.567 175.475L546.379 176.567L450.957 161.088L451.252 159.342Z" fill="#231F20"/>
<path d="M477.098 158.85L547.697 167.979Z" fill="white"/>
<path d="M477.098 158.85C483.033 159.195 488.94 159.778 494.844 160.397C500.747 161.016 506.633 161.75 512.509 162.555C515.447 162.944 518.39 163.342 521.324 163.766C524.258 164.191 527.196 164.611 530.13 165.057C535.993 165.941 541.856 166.892 547.697 167.979C541.767 167.537 535.863 166.963 529.96 166.339C527.008 166.021 524.061 165.698 521.114 165.345C518.167 164.991 515.224 164.646 512.281 164.275C506.391 163.558 500.519 162.736 494.647 161.87C488.775 161.003 482.943 160.026 477.098 158.85Z" fill="#231F20"/>
<path d="M193.632 190.216L267.669 247.709C257.203 260.564 247.763 274.207 239.434 288.512C235.473 295.334 231.946 301.988 228.82 308.407L153.296 242.881L193.632 190.216Z" fill="white" stroke="#231F20" stroke-width="4" stroke-miterlimit="10"/>
<path d="M273.989 132.147C268.568 140.662 263.155 149.518 257.748 158.714C248.974 173.684 241.021 188.305 233.805 202.453C229.429 202.338 221.511 202.842 213.987 207.758C208.182 211.56 199.72 219.885 201.6 226.972C202.185 229.183 204.123 232.583 206.959 232.693C209.687 232.8 211.665 229.811 211.915 229.422C210.934 231.508 210.602 233.837 210.96 236.111C211.08 236.836 211.955 242.102 215.501 243.057C218.381 243.835 222.302 241.58 224.034 237.199C222.797 241.337 223.878 245.599 226.785 248.101C230.407 251.196 235.645 250.453 238.485 248.782C244.017 245.524 245.951 235.519 241.374 224.528C242.204 228.193 245.12 230.567 247.84 230.386C251.309 230.156 252.921 225.894 253.073 225.482C254.306 222.065 252.783 218.882 251.832 216.897C249.599 212.219 245.754 209.703 243.714 208.585C245.73 201.572 248.214 194.7 251.149 188.013C258.68 170.943 269.031 155.234 281.777 141.533L273.989 132.147Z" fill="white" stroke="#231F20" stroke-width="4" stroke-miterlimit="10"/>
<path d="M210.211 230.35C213.36 226.026 217.029 222.099 221.138 218.656C217.49 222.481 214.326 226.734 211.716 231.318L210.211 230.35Z" fill="#231F20"/>
<path d="M222.736 239.138C223.49 234.128 225.744 229.457 229.207 225.729C230.339 224.517 231.585 223.415 232.926 222.435C231.69 223.52 230.56 224.717 229.551 226.012C228.554 227.3 227.688 228.681 226.965 230.137C225.533 233.013 224.7 236.145 224.514 239.346L222.736 239.138Z" fill="#231F20"/>
<path d="M324.222 82.6873C314.331 85.6946 304.991 90.2533 296.558 96.1896C277.419 109.679 268.046 126.828 263.96 135.839L284.193 153.811C288.324 146.582 293.124 138.889 298.644 130.918C304.163 122.947 309.785 115.691 315.166 109.254" fill="white"/>
<path d="M324.222 82.6873C314.331 85.6946 304.991 90.2533 296.558 96.1896C277.419 109.679 268.046 126.828 263.96 135.839L284.193 153.811C288.324 146.582 293.124 138.889 298.644 130.918C304.163 122.947 309.785 115.691 315.166 109.254" stroke="#231F20" stroke-width="4" stroke-miterlimit="10"/>
<path d="M320.504 44.2625C319.883 43.2854 315.521 36.6359 307.291 35.6765C305.031 35.4157 298.606 35.1283 294.082 39.7661C293.408 40.4514 289.518 44.4393 290.362 49.1656C291.255 54.1217 296.752 56.602 301.079 58.5695C305.063 60.3554 309.368 61.3297 313.739 61.4344" fill="white"/>
<path d="M320.505 44.2624C318.847 41.9372 316.718 39.9797 314.253 38.5147C311.839 37.0632 309.091 36.2459 306.269 36.1405C305.571 36.1162 304.872 36.1295 304.175 36.1803C303.481 36.2342 302.791 36.3243 302.107 36.45C300.751 36.6943 299.435 37.1259 298.2 37.7322C296.984 38.3349 295.876 39.1293 294.918 40.0843C293.947 41.0351 293.117 42.1173 292.453 43.2985C291.793 44.4375 291.371 45.6958 291.212 46.9991C291.067 48.2581 291.285 49.5319 291.841 50.6732C292.436 51.8299 293.269 52.8497 294.288 53.6664C295.36 54.5219 296.513 55.2725 297.731 55.908C298.964 56.5756 300.254 57.1769 301.558 57.7738C302.831 58.3566 304.142 58.8529 305.483 59.2593C308.175 60.0896 310.96 60.5856 313.775 60.736L313.74 62.1154C309.278 62.1404 304.862 61.2193 300.79 59.414C299.45 58.8349 298.111 58.238 296.825 57.5527C295.48 56.8742 294.214 56.0545 293.047 55.1077C291.82 54.1152 290.821 52.8747 290.118 51.469C289.435 50.0117 289.182 48.3937 289.385 46.8002C289.585 45.2585 290.109 43.7751 290.921 42.4452C291.695 41.1394 292.651 39.9486 293.761 38.9082C294.864 37.856 296.14 36.9977 297.535 36.3704C300.297 35.1748 303.323 34.7028 306.323 34.9998C309.29 35.2583 312.141 36.271 314.597 37.94C315.799 38.7628 316.906 39.7148 317.897 40.7784C318.898 41.8369 319.773 43.0059 320.505 44.2624V44.2624Z" fill="#231F20"/>
<path d="M415.726 58.7912C416.31 55.2852 416.449 51.7206 416.141 48.1804C415.809 44.6276 415.046 41.1273 413.868 37.7552C412.502 33.6523 409.148 23.6074 402.665 16.0913C393.117 5.03833 376.278 -1.04965 360.14 0.966411C337.371 3.78713 325.721 21.9361 322.148 27.5024C320.393 30.2303 300.598 62.2397 319.067 90.1331C329.177 105.399 348.441 115.953 368.799 113.344C387.553 110.939 398.882 98.4228 401.843 94.9477" fill="white"/>
<path d="M415.725 58.7906C416.765 52.561 416.374 46.1796 414.582 40.1199C412.742 34.1115 410.46 28.1827 407.254 22.7712C404.102 17.3115 399.706 12.6561 394.416 9.17601C391.776 7.46144 388.977 6.00025 386.057 4.81229C383.136 3.63533 380.11 2.7324 377.019 2.11537C376.242 1.97831 375.478 1.79262 374.697 1.69535L372.357 1.38145C370.789 1.25323 369.231 1.09407 367.65 1.10291C366.864 1.10291 366.078 1.06312 365.292 1.10291C364.507 1.1427 363.721 1.15155 362.939 1.21786L360.599 1.46103C359.818 1.54061 359.05 1.69093 358.273 1.80588C352.096 2.92366 346.214 5.27322 340.983 8.71178C335.775 12.1907 331.187 16.5027 327.408 21.4713C325.5 23.943 323.744 26.5252 322.147 29.204C320.577 31.8948 319.176 34.6797 317.954 37.5424C315.472 43.2567 313.741 49.2625 312.801 55.4128C311.861 61.5384 312.012 67.7796 313.248 73.8536C314.541 79.9034 317.059 85.6308 320.651 90.6895C322.433 93.2199 324.44 95.5873 326.649 97.7634C327.792 98.82 328.881 99.9165 330.123 100.858L331.016 101.601C331.315 101.844 331.614 102.096 331.936 102.313L333.833 103.675C334.45 104.148 335.133 104.523 335.789 104.943L336.781 105.558C337.105 105.772 337.44 105.97 337.785 106.15C339.165 106.875 340.514 107.658 341.956 108.255C344.792 109.545 347.739 110.581 350.762 111.35L353.048 111.845C353.428 111.92 353.807 112.022 354.191 112.084L355.348 112.247L357.665 112.574L360.001 112.729L361.166 112.809C361.555 112.809 361.943 112.809 362.336 112.809H364.672C365.453 112.787 366.226 112.685 367.003 112.632L368.168 112.53C368.365 112.53 368.561 112.504 368.753 112.482L369.329 112.389L371.638 112.017C372.024 111.959 372.407 111.881 372.785 111.783L373.924 111.518L375.063 111.252C375.442 111.164 375.813 111.031 376.184 110.925C376.929 110.691 377.68 110.483 378.416 110.236C381.365 109.194 384.214 107.897 386.932 106.358C392.376 103.252 397.239 99.2427 401.311 94.505L402.36 95.3892C398.223 100.288 393.268 104.447 387.709 107.685C384.922 109.296 381.996 110.659 378.966 111.756C378.202 112.017 377.43 112.247 376.661 112.495C376.273 112.61 375.893 112.751 375.5 112.844L374.326 113.127L373.147 113.414C372.757 113.518 372.362 113.602 371.964 113.666L369.575 114.073L368.976 114.175C368.775 114.201 368.575 114.215 368.374 114.237L367.168 114.347C366.364 114.414 365.56 114.52 364.752 114.546L362.327 114.577C361.921 114.577 361.519 114.577 361.113 114.577L359.903 114.502L357.482 114.347L355.08 114.016L353.879 113.852C353.481 113.79 353.088 113.688 352.691 113.609L350.324 113.1C347.19 112.314 344.133 111.249 341.192 109.917C339.701 109.303 338.299 108.502 336.87 107.755C336.508 107.574 336.169 107.357 335.825 107.145L334.798 106.513C334.119 106.071 333.409 105.691 332.766 105.187L330.801 103.785C330.466 103.56 330.158 103.303 329.846 103.051L328.908 102.286C327.631 101.305 326.488 100.173 325.304 99.0853C322.995 96.8343 320.903 94.3759 319.053 91.7417C315.325 86.4684 312.716 80.5021 311.381 74.2029C310.119 67.9135 309.978 61.4539 310.966 55.1166C311.939 48.8148 313.726 42.663 316.284 36.8129C317.54 33.882 318.981 31.0321 320.598 28.28C322.258 25.5553 324.081 22.9304 326.055 20.4191C329.997 15.3589 334.757 10.9789 340.143 7.45616C342.85 5.71768 345.729 4.25562 348.735 3.09245C351.742 1.94421 354.863 1.10854 358.045 0.598899C358.844 0.497211 359.639 0.355733 360.439 0.289415L362.841 0.0816186C363.64 0.0329855 364.444 0.0374067 365.248 0.0108796C366.052 -0.0156475 366.851 0.0108795 367.655 0.0418278C369.258 0.0418278 370.852 0.249625 372.446 0.408787L374.822 0.771325C375.617 0.886276 376.394 1.08965 377.175 1.24439C377.568 1.32839 377.961 1.40356 378.349 1.50082L379.506 1.81473C380.274 2.03579 381.055 2.20821 381.81 2.48232C382.565 2.75644 383.328 2.98192 384.083 3.24719L386.316 4.13143C389.253 5.38346 392.063 6.91134 394.706 8.6941C397.345 10.4831 399.76 12.5756 401.9 14.928C404.034 17.289 405.892 19.8816 407.437 22.6562C410.608 28.1296 412.796 34.0806 414.622 40.1022C416.398 46.1714 416.775 52.5579 415.725 58.7906Z" fill="#231F20"/>
<path d="M390.276 63.8844C397.361 62.5778 404.615 62.4388 411.746 63.4733C418.806 64.5255 420.529 66.0199 421.239 66.745C425.995 71.6083 424.928 82.0822 419.587 88.4089C413.519 95.5978 401.725 97.6581 395.228 92.9053C393.648 91.7183 392.375 90.1774 391.513 88.4089" fill="white"/>
<path d="M390.276 63.8837C397.501 62.0879 405.011 61.7049 412.384 62.7563C414.257 62.9976 416.105 63.3969 417.908 63.95C418.854 64.2426 419.763 64.64 420.619 65.1349C421.073 65.4079 421.492 65.7361 421.864 66.112C422.19 66.4922 422.525 66.8724 422.829 67.2703C423.939 68.9007 424.656 70.7609 424.928 72.7084C425.211 74.5987 425.199 76.5207 424.892 78.4074C424.594 80.2798 424.057 82.1071 423.293 83.8454C422.548 85.6 421.549 87.2382 420.328 88.7088C419.086 90.1511 417.646 91.4145 416.05 92.4624C414.448 93.4622 412.73 94.2681 410.933 94.8631C409.133 95.4358 407.266 95.779 405.378 95.8844C404.905 95.8844 404.436 95.9375 403.967 95.9154L402.556 95.8402C402.087 95.7827 401.618 95.7031 401.154 95.6368C400.92 95.6071 400.688 95.5598 400.462 95.4953L399.778 95.3229C399.321 95.2102 398.873 95.0624 398.439 94.8808L397.778 94.6376L397.166 94.3326L396.541 94.0098C396.335 93.8971 396.137 93.7716 395.947 93.634C395.555 93.3805 395.177 93.1075 394.813 92.8161C393.4 91.6035 392.28 90.0927 391.535 88.3949C392.398 89.9962 393.6 91.3942 395.058 92.4933C396.533 93.525 398.204 94.2499 399.97 94.6244L400.631 94.757C400.85 94.807 401.073 94.8395 401.297 94.8543C401.743 94.8985 402.19 94.9471 402.636 94.9781H403.976C404.422 94.9781 404.869 94.9162 405.315 94.8896C407.107 94.7312 408.871 94.3433 410.562 93.7357C412.227 93.1191 413.813 92.3104 415.287 91.3261C416.73 90.3114 418.027 89.1082 419.145 87.7494C420.247 86.3769 421.142 84.8534 421.802 83.2265C422.475 81.605 422.944 79.9078 423.2 78.173C423.465 76.4529 423.465 74.7027 423.2 72.9825C422.96 71.3049 422.337 69.7036 421.378 68.3005C421.123 67.9777 420.846 67.6727 420.583 67.3543C420.315 67.0783 420.015 66.8349 419.69 66.6293C418.957 66.2001 418.178 65.8531 417.368 65.5947C415.651 65.0635 413.899 64.6498 412.125 64.3567C408.535 63.7453 404.903 63.4098 401.261 63.3531C397.592 63.3075 393.923 63.4847 390.276 63.8837V63.8837Z" fill="#231F20"/>
<path d="M334.538 67.9688C338.476 76.2268 344.355 83.4309 351.681 88.9784C359.008 94.5258 367.57 98.2551 376.652 99.8542" fill="white"/>
<path d="M334.538 67.9688C336.758 71.9244 339.371 75.6508 342.339 79.0924C343.816 80.7909 345.38 82.4141 347.023 83.9557C348.671 85.4898 350.422 86.9135 352.212 88.2796C355.838 90.9569 359.728 93.2647 363.822 95.1678C367.957 97.0797 372.247 98.643 376.647 99.841C374.34 99.6609 372.053 99.2852 369.811 98.718C367.556 98.1643 365.346 97.4476 363.197 96.5737C361.042 95.7066 358.953 94.6871 356.946 93.5231C352.926 91.1819 349.225 88.341 345.934 85.0698C344.296 83.4359 342.764 81.7008 341.348 79.875C338.537 76.2346 336.245 72.2282 334.538 67.9688V67.9688Z" fill="#231F20"/>
<path d="M367.088 48.4933C369.103 48.4933 370.736 45.7776 370.736 42.4275C370.736 39.0774 369.103 36.3617 367.088 36.3617C365.073 36.3617 363.44 39.0774 363.44 42.4275C363.44 45.7776 365.073 48.4933 367.088 48.4933Z" fill="#231F20"/>
<path d="M411.162 54.8902C413.31 54.8902 415.051 52.0101 415.051 48.4573C415.051 44.9045 413.31 42.0244 411.162 42.0244C409.014 42.0244 407.272 44.9045 407.272 48.4573C407.272 52.0101 409.014 54.8902 411.162 54.8902Z" fill="#231F20"/>
</svg>
