<svg width="86" height="84" viewBox="0 0 86 84" fill="none" xmlns="http://www.w3.org/2000/svg">
    <path d="M71.2793 21.8446C64.3501 4.90493 45.2505 -1.9786 31.9982 4.27741C18.0548 10.852 14.6782 29.9991 21.3467 43.3042C27.8165 56.2176 43.5948 63.3719 57.2969 59.5718C71.0936 55.7494 82.198 40.9981 78.5998 32.2447C74.8841 23.2016 56.2246 22.3702 43.9826 25.7371C27.0016 30.4227 10.6399 46.4418 14.0263 57.6192C16.4513 65.6144 28.2271 68.5322 39.3218 71.2811C47.4505 73.2943 71.954 79.3655 81.2626 67.3791C84.9521 62.6297 86.0505 55.3098 83.9255 49.8119C75.699 28.502 25.0786 13.276 7.36756 34.2037C-2.08443 45.3843 -0.490634 65.1493 8.70062 83" stroke="#0D4E32" stroke-width="2" stroke-miterlimit="10"/>
    </svg>
    