<svg width="203" height="125" viewBox="0 0 203 125" fill="none" xmlns="http://www.w3.org/2000/svg">
    <path d="M202.405 70.8925C202.401 70.8886 163.657 6.4173 76.974 0.715179C5.39973 -3.98802 0.812513 57.6417 0.812513 57.6417C0.812513 57.6417 4.26987 119.802 75.8479 124.503C162.529 130.206 202.401 70.9029 202.405 70.8925Z" fill="#00A560" fill-opacity="0.15" />
    <path d="M200.816 70.6998C200.813 70.6961 163.407 8.94229 80.7602 2.95367C12.5186 -1.98632 8.6106 56.7823 8.6106 56.7823C8.6106 56.7823 12.3726 116.108 80.6177 121.046C163.263 127.036 200.812 70.7098 200.816 70.6998Z" fill="#00A560" fill-opacity="0.52" />
    <path d="M198.28 70.807C198.276 70.8034 162.567 12.3348 84.6984 6.13879C20.4026 1.02723 17.1876 56.4065 17.1876 56.4065C17.1876 56.4065 21.1991 112.362 85.4982 117.472C163.365 123.669 198.276 70.8163 198.28 70.807Z" fill="#00A560" />
</svg>
    