<svg width="96" height="82" viewBox="0 0 96 82" fill="none" xmlns="http://www.w3.org/2000/svg">
<path d="M13.0014 60.9672L47.9591 54.5311C48.5288 55.1186 49.551 55.9974 50.9908 56.4019C53.4539 57.0936 56.1 56.1035 57.8593 53.9201L89.5229 50.1661C81.2427 40.1676 72.9635 30.1697 64.6853 20.1723L40.295 27.853L5.91724 33.4803C8.27889 42.6426 10.6403 51.8049 13.0014 60.9672Z" fill="black" stroke="#231F20" stroke-width="2" stroke-miterlimit="10"/>
<path d="M47.9732 54.1395C48.9804 52.203 50.9904 51.0931 53.1553 51.2896C55.8461 51.5329 57.4715 53.6744 57.6767 53.9575L88.1323 48.7857C88.1046 47.1694 87.785 45.5447 87.1891 43.991C85.9133 40.6766 83.7149 38.6168 82.6362 37.7209C77.9327 36.9834 73.2185 37.25 68.804 38.5029C59.5084 41.1633 54.459 47.4726 52.634 50.0429C50.2848 48.9285 47.8439 48.0698 45.3559 47.4826C31.2609 44.1723 19.8099 50.6947 15.6072 53.4291C15.0623 55.5774 14.5172 57.7255 13.9718 59.8736L47.9732 54.1395Z" fill="white" stroke="#0D4E32" stroke-width="2" stroke-miterlimit="10"/>
<path d="M7.49779 30.1863L16.0618 54.6835C15.5052 56.8787 14.9484 59.0738 14.3913 61.2689L6.71251 33.0018C6.97483 32.0632 7.23659 31.1247 7.49779 30.1863Z" fill="white" stroke="#0D4E32" stroke-width="4" stroke-miterlimit="10"/>
<path d="M7.58446 28.9614C11.3644 28.4304 15.5236 28.0281 20.0273 27.8577C25.6563 27.6453 31.3274 27.8143 37.0031 28.3635C43.3984 26.3457 49.7872 24.3125 56.1695 22.2639C59.172 21.3002 62.1739 20.3333 65.1752 19.3631L82.9728 37.5987C79.478 37.0364 75.9675 37.0399 72.5761 37.6092C61.6332 39.4654 55.3467 46.7886 53.1648 49.639C46.05 46.7647 38.4631 45.8741 31.2468 47.0659C25.6491 47.9914 20.4184 50.1265 15.8988 53.3308L7.58446 28.9614Z" fill="white"/>
<path d="M7.50275 28.9094C7.65947 28.8786 7.82349 28.8429 7.98911 28.8147C8.07065 28.8011 8.1525 28.7859 8.23698 28.777L8.46687 28.7462L9.37347 28.6288C9.97726 28.5521 10.5843 28.4826 11.1895 28.4142C12.4024 28.281 13.6185 28.166 14.838 28.069C17.2771 27.8719 19.7266 27.7495 22.1865 27.7016C24.6465 27.6537 27.112 27.6763 29.583 27.7694C32.0536 27.8644 34.5268 28.0314 37.0027 28.2704L36.9673 28.2738L51.0603 23.7864C53.4079 23.0371 55.7598 22.2968 58.104 21.5372L65.1404 19.2703L65.1944 19.253L65.2372 19.2968L83.035 37.5329L83.221 37.7244L82.967 37.6858C81.5248 37.4698 80.0789 37.3452 78.6378 37.3127C78.278 37.3023 77.9188 37.3037 77.5605 37.3015C77.2021 37.2993 76.8433 37.314 76.4869 37.3326C75.772 37.3644 75.0612 37.4185 74.3554 37.5012L74.0905 37.53L73.8266 37.5653C73.6507 37.5904 73.4748 37.6108 73.2996 37.6362C72.9503 37.6925 72.599 37.7429 72.253 37.8135C71.9071 37.8841 71.5583 37.9415 71.2163 38.0233L70.7013 38.1459C70.5295 38.1847 70.3605 38.2329 70.1903 38.2759C68.8298 38.6303 67.5016 39.0758 66.2141 39.6096C63.6432 40.6948 61.2441 42.1096 59.0712 43.8218C58.5298 44.2503 58.0002 44.6939 57.4824 45.1527C56.9646 45.6115 56.4638 46.088 55.9801 46.5824C55.0044 47.5639 54.089 48.6048 53.238 49.7003V49.7003L53.1991 49.7509L53.1375 49.7255C49.9987 48.4573 46.7521 47.5707 43.4709 47.0855C41.8325 46.8463 40.1904 46.705 38.5532 46.6625C37.7351 46.6457 36.9176 46.6453 36.104 46.6787C35.6965 46.6897 35.2915 46.7186 34.8856 46.7403C34.4798 46.7619 34.0759 46.8005 33.6734 46.8441C32.8696 46.9249 32.0685 47.0294 31.2702 47.1574L30.0826 47.3734L29.9345 47.4006L29.7874 47.4344L29.4925 47.5016L28.9046 47.6304C27.342 47.9914 25.8111 48.4501 24.3205 49.0038C21.336 50.114 18.5274 51.5953 15.9548 53.416L15.8551 53.4864L15.8126 53.3619C13.0317 45.2109 10.2617 37.0601 7.50275 28.9094ZM7.66235 29.0122C10.4466 37.1171 13.2201 45.2156 15.9828 53.3079L15.8369 53.2526C18.4216 51.4257 21.2433 49.9399 24.2416 48.8272C25.739 48.2709 27.2768 47.8102 28.8466 47.4476L29.437 47.318L29.7327 47.2511L29.8805 47.2176L30.0294 47.1906L31.2227 46.9732C32.021 46.8431 32.8256 46.7381 33.6365 46.6583C34.0392 46.614 34.4471 46.5899 34.8539 46.5561C35.2607 46.5223 35.6682 46.5042 36.078 46.4939C36.8948 46.4599 37.7162 46.4606 38.5381 46.4778C40.1834 46.5198 41.8337 46.6609 43.4803 46.9004C46.7764 47.3884 50.0376 48.2796 53.1905 49.5541L53.0893 49.579C54.7696 47.3472 56.7182 45.3431 58.8964 43.6065C61.0754 41.865 63.4893 40.4295 66.0811 39.3338C68.6781 38.2453 71.4433 37.5351 74.3 37.2229C75.0129 37.1439 75.7323 37.0979 76.4562 37.0718C76.8166 37.0568 77.1783 37.0546 77.5395 37.0506C77.9007 37.0467 78.2634 37.0549 78.6264 37.0686C80.0772 37.1168 81.5321 37.2636 82.9811 37.5083L82.9131 37.6611L65.1126 19.4227L65.2089 19.4515L58.1718 21.7182C55.8284 22.478 53.4764 23.2183 51.128 23.9681L37.035 28.4555L37.0189 28.4608L37.0011 28.4555C34.5324 28.2176 32.0628 28.0512 29.5922 27.9561C27.1215 27.8611 24.6605 27.8385 22.209 27.8884C19.754 27.9404 17.3077 28.0638 14.8701 28.2587C13.6516 28.3513 12.4376 28.4647 11.2282 28.5989C10.623 28.6674 10.0191 28.737 9.41452 28.8135L8.5094 28.9313L8.28695 28.9604C8.21893 28.9696 8.15107 28.9781 8.08292 28.9841C7.9444 28.9955 7.80665 29.0033 7.66235 29.0122V29.0122Z" fill="#0D4E32"/>
<path d="M52.4341 48.8978C54.6746 44.8201 57.7748 41.3387 61.5378 38.6748C69.5322 33.0423 78.1102 32.8969 81.5323 33.0257L59.8672 14.6111C55.3849 15.0774 51.1426 16.5266 47.4277 18.8606C43.7127 21.1946 40.6118 24.3589 38.3349 28.1391L52.4341 48.8978Z" fill="white" stroke="#0D4E32" stroke-width="2" stroke-miterlimit="10"/>
<path d="M38.4534 29.2283C33.5827 26.7016 28.3274 25.2044 23.0366 24.8364C17.7459 24.4685 12.5411 25.238 7.76799 27.0941L15.8606 49.6065C19.4099 48.1821 23.1517 47.2005 27.0092 46.6818C37.9056 45.2239 47.1882 47.8405 52.4884 49.8151L38.4534 29.2283Z" fill="white" stroke="#0D4E32" stroke-width="2" stroke-miterlimit="10"/>
<path d="M52.9642 49.0804C55.4771 45.0757 60.1529 38.9245 68.0599 34.1283C71.9412 31.7778 76.1713 30.0069 80.6329 28.8646L61.2601 13.9335C58.5728 13.9341 52.3625 14.3097 46.3962 18.4148C43.0961 20.6942 40.403 23.7332 38.5094 27.3144L52.9642 49.0804Z" fill="white" stroke="#0D4E32" stroke-width="2" stroke-miterlimit="10"/>
<path d="M52.4954 49.6981C40.6922 45.6783 28.3883 44.2555 16.4594 45.5309L8.58151 23.0684C11.0943 22.917 13.6296 22.9349 16.1707 23.122C25.3601 23.8024 33.0253 26.5884 38.4826 29.188L52.4954 49.6981Z" fill="white" stroke="#0D4E32" stroke-width="2" stroke-miterlimit="10"/>
<path d="M20.7576 26.826C20.7493 26.8579 20.7521 26.8927 20.7654 26.9249C20.7787 26.9571 20.8017 26.9849 20.831 27.004C28.2916 32.0011 35.8715 37.2909 43.5707 42.8736C46.6561 45.116 49.6907 47.3577 52.6743 49.5988C52.7039 49.6214 52.7393 49.6338 52.7747 49.6338C52.8101 49.6339 52.8433 49.6216 52.8688 49.5991C52.8944 49.5765 52.9106 49.5451 52.915 49.5099C52.9193 49.4748 52.9114 49.4381 52.8927 49.406C47.8965 40.698 42.1812 32.3884 35.8146 24.5758C30.6894 18.2881 25.1568 12.3407 19.2595 6.77946C19.2325 6.75425 19.1986 6.73826 19.1635 6.73407C19.1283 6.72989 19.0939 6.73776 19.0657 6.7564C19.0376 6.77505 19.0174 6.80338 19.0084 6.83681C18.9994 6.87024 19.0021 6.90681 19.0162 6.9406C20.3709 10.2808 21.1977 13.7729 21.4641 17.2801C21.7086 20.524 21.4704 23.742 20.7576 26.826V26.826Z" fill="white" stroke="#0D4E32" stroke-width="2" stroke-miterlimit="10"/>
<path d="M83.5981 40.0366C81.7015 39.6025 79.7831 39.3679 77.8745 39.3367C66.3353 39.1608 58.5362 46.5804 55.6786 49.6548" fill="white"/>
<path d="M83.5978 40.0368C82.2836 39.7651 80.9607 39.584 79.6384 39.4949C78.979 39.4533 78.3192 39.4249 77.6633 39.435L77.1715 39.4435C77.0074 39.4482 76.8434 39.4451 76.6803 39.457C76.3542 39.4754 76.0276 39.489 75.7021 39.5123C73.101 39.7201 70.5726 40.2889 68.1864 41.2032C66.9941 41.6584 65.8356 42.1863 64.7168 42.7842C63.5955 43.3805 62.5118 44.0396 61.4703 44.7587C60.4282 45.4764 59.4242 46.2461 58.4582 47.0679C57.9788 47.4794 57.4984 47.8953 57.0372 48.3293C56.8063 48.5456 56.5769 48.7646 56.3491 48.9865C56.1212 49.2083 55.8962 49.4318 55.674 49.6569C57.355 47.7437 59.2452 46.0315 61.314 44.5478C63.385 43.0561 65.6484 41.8374 68.056 40.9175C69.2611 40.4611 70.5042 40.0935 71.7761 39.8176L72.7347 39.6288L73.7027 39.4747L74.6796 39.3606L75.6621 39.284C75.9913 39.2657 76.3215 39.2579 76.6504 39.2442C76.8147 39.2349 76.9809 39.2426 77.1465 39.2415L77.6428 39.2452C78.3048 39.2517 78.9687 39.2907 79.6329 39.3547C80.9606 39.4821 82.286 39.7101 83.5978 40.0368V40.0368Z" fill="#231F20"/>
<path d="M16.7974 55.1752C26.3041 50.8703 37.1955 49.8 47.9396 52.1151Z" fill="white"/>
<path d="M16.7973 55.1753C19.1334 54.0568 21.5771 53.1461 24.1028 52.4528C25.3652 52.1048 26.646 51.8111 27.9452 51.5719L28.4333 51.4863L28.9205 51.405C29.0832 51.3765 29.2459 51.3479 29.4072 51.3259L29.8993 51.2584C30.2273 51.2151 30.5543 51.1654 30.8838 51.1265L31.8738 51.02C32.2034 50.9803 32.5359 50.9607 32.8681 50.931C33.2003 50.9013 33.5314 50.8767 33.8649 50.8635L34.8647 50.8152L35.8679 50.7919C37.2058 50.7741 38.5482 50.8086 39.8951 50.8954L40.904 50.9759C41.2405 51.0043 41.5772 51.0428 41.9128 51.0755C42.081 51.0916 42.2492 51.1116 42.417 51.1337L42.9209 51.1972C43.2575 51.2364 43.5926 51.2898 43.9281 51.3379C44.2636 51.386 44.5991 51.4456 44.9344 51.5021C45.2697 51.5586 45.6032 51.6238 45.9374 51.6853C46.2717 51.7469 46.6057 51.8207 46.9387 51.888C47.2718 51.9554 47.6044 52.0395 47.9374 52.1145C45.2685 51.6102 42.5851 51.2851 39.9055 51.1412C37.2294 51.0055 34.5647 51.0643 31.9323 51.317L30.9455 51.4191C30.6178 51.457 30.292 51.5048 29.9658 51.547L29.4758 51.6121L28.9896 51.6883L28.5037 51.7637L28.0156 51.8494C26.7234 52.0748 25.4444 52.3498 24.1786 52.6742C23.8614 52.7522 23.5485 52.8429 23.2324 52.9266L22.293 53.1955C21.6696 53.3834 21.0498 53.5813 20.4337 53.7892C19.8172 53.9942 19.2076 54.2181 18.6007 54.4483C18.2986 54.566 17.9958 54.6836 17.6965 54.8068C17.3972 54.93 17.098 55.0532 16.7973 55.1753Z" fill="#231F20"/>
<path d="M16.0505 58.5421L46.6553 54.0087Z" fill="white"/>
<path d="M16.0502 58.5419C17.3181 58.3232 18.5905 58.1205 19.8606 57.9102C21.1307 57.6998 22.4044 57.506 23.6746 57.3026C24.9447 57.0993 26.2189 56.8994 27.4932 56.7065L29.4041 56.414L31.316 56.1279L33.2281 55.841L35.1416 55.5623C36.4173 55.3737 37.6947 55.1956 38.9721 55.0145C40.2494 54.8333 41.5286 54.6619 42.8079 54.4936C43.448 54.4073 44.0894 54.3298 44.7297 54.2467L45.6929 54.1231L46.6583 54.0079L45.708 54.1746L44.7564 54.3363C44.1215 54.4427 43.4873 54.5531 42.8517 54.6554C41.5819 54.866 40.3102 55.0702 39.0367 55.268C37.7632 55.465 36.4902 55.6667 35.2155 55.8541L33.3011 56.141L31.3876 56.4197L29.4741 56.6984L27.5569 56.976C26.2812 57.1618 25.0038 57.3409 23.7247 57.5133C22.4472 57.6914 21.1724 57.8718 19.8913 58.0411C18.6102 58.2103 17.3323 58.3829 16.0502 58.5419Z" fill="#231F20"/>
<path d="M56.2226 51.9742C58.5164 49.891 61.1092 48.1583 63.9302 46.8234C73.0747 42.5083 82.15 43.6161 86.3912 44.433" fill="white"/>
<path d="M56.2228 51.9741C58.1382 50.1617 60.2848 48.6093 62.6162 47.3503C63.784 46.7224 64.9943 46.169 66.2407 45.693C66.3959 45.6308 66.5531 45.5746 66.7102 45.5185L67.1818 45.3492C67.4973 45.2387 67.8174 45.1397 68.1356 45.0355C68.4537 44.9312 68.7793 44.8401 69.102 44.7551L69.5896 44.6262L69.8326 44.5615L70.0805 44.5038C72.6995 43.8721 75.4092 43.5519 78.1569 43.5496C79.5269 43.5468 80.9029 43.6188 82.2788 43.7651C82.9706 43.8406 83.6539 43.9345 84.343 44.0456C84.5146 44.0725 84.686 44.1012 84.8574 44.1316C85.0283 44.1602 85.1994 44.1918 85.3705 44.2235C85.7123 44.2883 86.0499 44.3588 86.3945 44.433C83.6588 43.9677 80.9093 43.7564 78.1814 43.8018C75.4591 43.8452 72.7751 44.1786 70.1736 44.7966L69.9297 44.854L69.6879 44.9167L69.2039 45.0435C68.8823 45.1305 68.5642 45.227 68.2449 45.3184C67.9255 45.4099 67.6108 45.5167 67.296 45.6235L66.8266 45.7864C66.6691 45.8402 66.5124 45.8942 66.3579 45.9566C66.0494 46.0753 65.737 46.1859 65.4332 46.3161C65.1293 46.4463 64.8208 46.5651 64.5207 46.7034C63.9156 46.9661 63.321 47.2544 62.7348 47.5546C60.3896 48.7698 58.2062 50.2517 56.2228 51.9741V51.9741Z" fill="#231F20"/>
<path d="M43.9567 30.0243C45.0863 27.7447 46.638 25.7325 48.5353 24.0867C53.0869 20.153 58.3154 19.5269 60.5325 19.3986" fill="white"/>
<path d="M43.9567 30.0243C45.0863 27.7447 46.638 25.7325 48.5353 24.0867C53.0869 20.153 58.3154 19.5269 60.5325 19.3986" stroke="#231F20" stroke-miterlimit="10"/>
<path d="M18.8323 39.4667C21.9601 38.3735 25.3483 37.9759 28.7724 38.3004C32.1965 38.6248 35.5785 39.6638 38.6944 41.3486" fill="white"/>
<path d="M18.8323 39.4667C21.9601 38.3735 25.3483 37.9759 28.7724 38.3004C32.1965 38.6248 35.5785 39.6638 38.6944 41.3486" stroke="#231F20" stroke-miterlimit="10"/>
<path d="M18.0681 35.1337C20.1344 34.211 22.4266 33.7853 24.7742 33.8883C27.1219 33.9912 29.4644 34.6202 31.6274 35.7284" fill="white"/>
<path d="M18.0681 35.1337C20.1344 34.211 22.4266 33.7853 24.7742 33.8883C27.1219 33.9912 29.4644 34.6202 31.6274 35.7284" stroke="#231F20" stroke-miterlimit="10"/>
<path d="M16.4872 30.5811C19.3036 30.095 22.2522 30.2537 25.1166 31.0454Z" fill="white"/>
<path d="M16.4872 30.5811C19.3036 30.095 22.2522 30.2537 25.1166 31.0454" stroke="#231F20" stroke-miterlimit="10"/>
<path d="M68.0626 22.4945C63.6536 22.9734 59.5005 24.4712 55.9144 26.8756C52.3283 29.2801 49.4021 32.5289 47.3549 36.3788" fill="white"/>
<path d="M68.0626 22.4945C63.6536 22.9734 59.5005 24.4712 55.9144 26.8756C52.3283 29.2801 49.4021 32.5289 47.3549 36.3788" stroke="#231F20" stroke-miterlimit="10"/>
<path d="M24.6151 25.4576C32.2677 28.501 39.2029 33.3665 44.7781 39.6031Z" fill="white"/>
<path d="M24.6151 25.4576C32.2677 28.501 39.2029 33.3665 44.7781 39.6031" stroke="#231F20" stroke-miterlimit="10"/>
<path d="M26.0955 21.1761C31.2402 22.8352 35.8016 26.2115 38.9793 30.7128Z" fill="white"/>
<path d="M26.0955 21.1761C31.2402 22.8352 35.8016 26.2115 38.9793 30.7128" stroke="#231F20" stroke-miterlimit="10"/>
<path d="M71.3088 18.8833L74.9729 19.9361Z" fill="white"/>
<path d="M45.9314 44.7651C45.3984 45.7392 45.0886 46.8298 45.0217 47.9679Z" fill="white"/>
<path d="M45.9313 44.7679C45.4545 45.7595 45.2015 46.8567 45.188 47.9904L44.8653 47.9429C44.9868 46.8032 45.3497 45.7223 45.9313 44.7679V44.7679Z" fill="#231F20"/>
<path d="M48.4833 44.8367C48.1579 46.0123 48.1041 47.2683 48.3257 48.5162Z" fill="white"/>
<path d="M48.4794 44.8376C48.2095 46.0192 48.209 47.2692 48.4779 48.5001L48.1668 48.5289C47.9958 47.2657 48.1025 46.0057 48.4794 44.8376V44.8376Z" fill="#231F20"/>
</svg>
