<svg width="459" height="409" viewBox="0 0 459 409" fill="none" xmlns="http://www.w3.org/2000/svg">
    <path d="M69.4832 406.23L243.639 317.709C247.223 319.896 253.466 322.903 261.36 322.769C274.865 322.536 287.506 313.199 294.267 298.992L454.248 229.696C400.578 190.24 346.914 150.786 293.255 111.332L175.183 189.823L3.16061 273.195C25.2695 317.54 47.377 361.885 69.4832 406.23Z" fill="black" stroke="#231F20" stroke-width="4" stroke-miterlimit="10"/>
    <path d="M244.148 315.183C247.28 303.429 256.504 294.446 267.941 292.083C282.156 289.141 292.896 297.843 294.266 299.009L446.598 224.074C444.71 215.626 441.298 207.591 436.531 200.363C426.337 184.951 412.713 177.577 406.152 174.562C380.968 178.064 356.812 186.857 335.275 200.363C289.948 228.918 270.58 269.985 263.892 286.35C250.508 284.18 236.924 283.497 223.389 284.313C146.73 289.027 94.3975 341.253 75.5589 362.21C75.0533 374.35 74.5463 386.491 74.0379 398.632L244.148 315.183Z" fill="white" stroke="#231F20" stroke-width="4" stroke-miterlimit="10"/>
    <path d="M6.19845 249.423L75.5589 362.222C75.0532 374.363 74.5463 386.503 74.0379 398.644L5.18719 265.104C5.527 259.876 5.86408 254.649 6.19845 249.423Z" fill="white" stroke="#231F20" stroke-width="4" stroke-miterlimit="10"/>
    <path d="M6.19844 247.398C25.2124 238.688 46.3304 230.059 69.4832 222.106C98.4219 212.17 127.99 204.169 157.992 198.155C188.955 177.545 219.867 156.865 250.73 136.115C265.249 126.353 279.761 116.576 294.266 106.781L406.152 174.562C387.437 177.089 369.251 182.609 352.291 190.911C297.59 217.8 272.912 266.074 264.679 284.448C224.713 280.519 184.44 287.736 148.332 305.299C120.325 318.928 95.5228 338.327 75.5589 362.222L6.19844 247.398Z" fill="white"/>
    <path d="M5.72952 247.256C6.50835 246.848 7.3198 246.404 8.14756 245.997C8.55532 245.797 8.96308 245.589 9.39123 245.41L10.5493 244.889L15.1203 242.851C18.1663 241.503 21.2367 240.187 24.299 238.879C30.4399 236.28 36.6175 233.77 42.8319 231.35C55.2577 226.494 67.8182 222.013 80.5132 217.906C93.2082 213.799 106.008 210.054 118.912 206.67C131.817 203.296 144.812 200.296 157.898 197.67L157.719 197.743L225.905 152.114C237.261 144.503 248.65 136.934 259.978 129.274L293.993 106.354L294.254 106.178L294.523 106.341L406.409 174.122L407.58 174.835L406.222 175.03C398.516 176.157 390.889 177.77 383.387 179.858C381.511 180.367 379.652 180.938 377.793 181.488C375.933 182.038 374.09 182.677 372.263 183.333C368.593 184.621 364.968 186.018 361.401 187.558L360.059 188.124L358.73 188.723C357.845 189.131 356.956 189.514 356.075 189.921C354.326 190.764 352.56 191.579 350.844 192.492C349.127 193.404 347.382 194.252 345.698 195.217L343.161 196.668C342.313 197.14 341.489 197.658 340.654 198.151C333.986 202.142 327.584 206.561 321.489 211.379C309.337 221.102 298.432 232.284 289.019 244.673C286.675 247.769 284.409 250.926 282.221 254.145C280.033 257.363 277.952 260.648 275.978 264C271.981 270.678 268.36 277.574 265.132 284.656L264.985 284.981L264.638 284.945C247.006 283.211 229.228 283.647 211.703 286.244C202.955 287.557 194.294 289.39 185.765 291.732C181.508 292.926 177.271 294.205 173.092 295.656C170.992 296.352 168.924 297.139 166.845 297.888C164.765 298.638 162.714 299.473 160.675 300.333C156.598 302.017 152.559 303.82 148.561 305.743L142.64 308.737L141.902 309.112L141.176 309.52L139.72 310.334L136.813 311.932C129.105 316.275 121.668 321.08 114.541 326.321C100.273 336.823 87.3175 348.997 75.9503 362.58L75.5099 363.106L75.1552 362.519C51.9562 324.114 28.8143 285.693 5.72952 247.256ZM6.66738 247.545C29.8337 285.703 52.9376 323.844 75.9789 361.969L75.1634 361.908C86.5862 348.272 99.6053 336.055 113.942 325.519C121.101 320.253 128.572 315.426 136.316 311.064L139.235 309.459L140.695 308.644L141.425 308.236L142.167 307.861L148.116 304.851C152.112 302.917 156.168 301.105 160.284 299.416C162.323 298.552 164.41 297.786 166.482 296.971C168.553 296.157 170.645 295.423 172.757 294.727C176.953 293.268 181.21 291.985 185.488 290.787C194.058 288.429 202.762 286.583 211.552 285.259C229.157 282.653 247.016 282.218 264.728 283.963L264.231 284.252C270.531 269.91 278.467 256.342 287.881 243.817C297.294 231.266 308.254 219.951 320.502 210.141C332.785 200.36 346.348 192.3 360.813 186.185C364.422 184.653 368.1 183.284 371.823 182.013C373.674 181.37 375.546 180.791 377.413 180.204C379.281 179.618 381.169 179.092 383.065 178.595C390.634 176.574 398.331 175.065 406.104 174.077L405.916 174.986L294.014 107.197H294.544L260.524 130.118C249.201 137.777 237.812 145.347 226.451 152.961L158.265 198.591L158.188 198.644H158.09C145.042 201.265 132.065 204.262 119.161 207.635C106.257 211.009 93.4801 214.747 80.8313 218.851C68.1661 222.971 55.6234 227.453 43.2029 232.296C36.9886 234.691 30.8205 237.189 24.6986 239.788C21.6363 241.096 18.5822 242.407 15.5321 243.756L10.9693 245.793L9.84793 246.294C9.50541 246.449 9.16288 246.6 8.81629 246.738C8.11086 247.015 7.40543 247.272 6.66738 247.545Z" fill="#231F20"/>
    <path d="M260.744 284.093C267.943 259.322 280.221 236.319 296.799 216.545C332.046 174.676 376.19 160.519 394.001 155.846L262.371 93.6263C239.723 103.06 219.368 117.246 202.685 135.224C186.002 153.203 173.38 174.553 165.674 197.829L260.744 284.093Z" fill="white" stroke="#231F20" stroke-width="4" stroke-miterlimit="10"/>
    <path d="M165.674 197.829C137.674 192.181 108.79 192.552 80.9445 198.918C53.0986 205.285 26.9278 217.5 4.17186 234.752L70.4945 340.47C87.368 327.409 105.72 316.374 125.171 307.593C180.126 282.826 231.112 282.024 260.744 284.093L165.674 197.829Z" fill="white" stroke="#231F20" stroke-width="4" stroke-miterlimit="10"/>
    <path d="M263.554 284.093C272.231 259.311 289.769 219.971 325.428 182.649C342.936 164.348 362.864 148.522 384.659 135.61L268.724 88.0611C254.86 92.2574 223.222 103.905 196.836 134.599C182.25 151.623 171.609 171.656 165.674 193.266L263.554 284.093Z" fill="white" stroke="#231F20" stroke-width="4" stroke-miterlimit="10"/>
    <path d="M260.744 284.093C195.052 281.417 129.576 293.241 68.9776 318.723L3.66624 212.496C16.5583 207.747 29.7511 203.857 43.1581 200.852C91.6451 190.003 134.497 192.667 165.674 197.817L260.744 284.093Z" fill="white" stroke="#231F20" stroke-width="4" stroke-miterlimit="10"/>
    <path d="M71.0164 215.926C71.0082 216.106 71.0597 216.283 71.163 216.43C71.2662 216.578 71.4154 216.687 71.5873 216.741C115.52 231.182 160.383 246.966 206.178 264.094C224.535 270.984 242.629 277.951 260.459 284.994C260.636 285.066 260.832 285.075 261.015 285.02C261.198 284.965 261.357 284.849 261.465 284.691C261.572 284.533 261.623 284.344 261.607 284.153C261.592 283.963 261.512 283.784 261.38 283.645C226.203 245.964 187.736 211.489 146.436 180.628C113.19 155.793 78.2043 133.373 41.7472 113.54C41.5806 113.451 41.3886 113.42 41.2023 113.453C41.0161 113.486 40.8465 113.581 40.721 113.723C40.5955 113.864 40.5214 114.044 40.5108 114.233C40.5002 114.421 40.5537 114.608 40.6625 114.763C51.2522 130.095 59.2757 147.045 64.4188 164.951C69.1658 181.516 71.39 198.7 71.0164 215.926Z" fill="white" stroke="#231F20" stroke-width="4" stroke-miterlimit="10"/>
    <path d="M414.255 188.723C403.971 189.42 393.789 191.195 383.876 194.02C323.96 211.163 291.575 262.22 280.093 282.79" fill="white"/>
    <path d="M414.255 188.723C407.16 189.358 400.117 190.481 393.177 192.084C389.72 192.899 386.274 193.783 382.89 194.863L380.353 195.678C379.509 195.959 378.657 196.199 377.825 196.517C376.157 197.124 374.482 197.707 372.822 198.338C359.582 203.498 347.107 210.435 335.74 218.957C330.058 223.207 324.63 227.784 319.483 232.666C314.32 237.544 309.42 242.691 304.803 248.087C300.182 253.475 295.813 259.077 291.698 264.892C289.659 267.797 287.62 270.726 285.699 273.721C284.737 275.215 283.786 276.721 282.845 278.239C281.904 279.757 280.98 281.279 280.072 282.806C286.714 270.157 294.656 258.234 303.767 247.227C312.882 236.175 323.286 226.251 334.757 217.666C340.504 213.389 346.543 209.519 352.829 206.083L357.588 203.594L362.432 201.271L367.366 199.145L372.369 197.206C374.053 196.594 375.754 196.036 377.442 195.45C378.282 195.144 379.15 194.924 380.007 194.659L382.58 193.901C386.013 192.899 389.491 192.064 392.998 191.359C400.007 189.948 407.113 189.067 414.255 188.723Z" fill="#0D4E32"/>
    <path d="M82.393 366.259C127.17 328.467 182.679 305.65 241.111 301.017L82.393 366.259Z" fill="white"/>
    <path d="M82.393 366.259C93.33 356.651 105.053 347.976 117.44 340.324C123.63 336.491 129.975 332.918 136.475 329.605L138.921 328.383L141.368 327.185C142.183 326.777 142.999 326.37 143.814 325.999L146.302 324.867C147.961 324.121 149.609 323.343 151.28 322.618L156.316 320.495C157.988 319.766 159.697 319.138 161.393 318.458C163.089 317.778 164.785 317.126 166.506 316.531L171.656 314.702L176.851 312.999C183.794 310.799 190.817 308.869 197.92 307.21L203.258 306.048C205.04 305.67 206.834 305.344 208.616 304.989C209.509 304.81 210.406 304.651 211.303 304.504L213.994 304.048C215.788 303.726 217.591 303.482 219.389 303.209C221.187 302.936 222.998 302.724 224.804 302.496C226.61 302.268 228.417 302.088 230.223 301.889C232.03 301.689 233.848 301.555 235.655 301.388C237.461 301.221 239.284 301.143 241.098 301.017C226.661 302.543 212.343 305.042 198.242 308.497C184.169 311.989 170.367 316.495 156.944 321.978L151.921 324.072C150.257 324.789 148.614 325.555 146.962 326.293L144.483 327.409L142.036 328.578L139.59 329.743L137.143 330.965C130.665 334.195 124.31 337.666 118.076 341.379C116.51 342.291 114.981 343.265 113.428 344.206L108.832 347.111C105.793 349.088 102.784 351.113 99.8044 353.185C96.8196 355.243 93.8919 357.39 90.9845 359.565C89.5411 360.665 88.0935 361.765 86.6704 362.89C85.2473 364.014 83.8242 365.139 82.393 366.259Z" fill="#0D4E32"/>
    <path d="M82.393 384.479L236.552 312.4L82.393 384.479Z" fill="white"/>
    <path d="M82.393 384.479C88.7459 381.329 95.1396 378.257 101.513 375.149C107.886 372.04 114.296 369.013 120.678 365.941C127.059 362.87 133.465 359.81 139.879 356.787L149.494 352.236L159.122 347.718L168.749 343.196L178.393 338.714C184.819 335.712 191.266 332.762 197.708 329.796C204.151 326.83 210.614 323.913 217.081 321.013C220.315 319.55 223.565 318.132 226.802 316.686L231.675 314.519L236.568 312.392L231.809 314.767L227.039 317.118C223.854 318.678 220.678 320.259 217.485 321.799C211.113 324.909 204.725 327.987 198.32 331.035C191.914 334.078 185.516 337.146 179.094 340.14L169.454 344.667L159.811 349.148L150.167 353.63L140.503 358.111C134.074 361.099 127.629 364.054 121.167 366.976C114.72 369.926 108.29 372.884 101.815 375.793C95.3394 378.702 88.8846 381.623 82.393 384.479Z" fill="#0D4E32"/>
    <path d="M285.667 293.904C295.313 279.354 306.889 266.178 320.078 254.736C362.844 217.706 411.111 209.293 433.99 206.934" fill="white"/>
    <path d="M285.667 293.904C293.643 281.372 303.099 269.843 313.831 259.567C319.209 254.435 324.888 249.627 330.839 245.17C331.577 244.599 332.331 244.057 333.085 243.516L335.349 241.886C336.865 240.81 338.419 239.788 339.956 238.741C341.494 237.694 343.084 236.704 344.666 235.75L347.055 234.308L348.246 233.587L349.469 232.894C362.371 225.465 376.079 219.532 390.327 215.209C397.43 213.045 404.644 211.265 411.939 209.876C415.609 209.187 419.254 208.609 422.948 208.112C423.867 207.984 424.787 207.866 425.709 207.757C426.626 207.639 427.548 207.537 428.469 207.436C430.312 207.24 432.139 207.081 434.007 206.93C419.315 208.776 404.827 211.978 390.727 216.496C376.654 220.995 363.094 226.958 350.269 234.288L349.066 234.972L347.879 235.681L345.506 237.107C343.932 238.069 342.387 239.075 340.829 240.057C339.271 241.038 337.754 242.094 336.238 243.149L333.978 244.742C333.22 245.271 332.466 245.801 331.732 246.371C330.26 247.48 328.759 248.551 327.324 249.712C325.888 250.873 324.416 251.981 323.01 253.179C320.155 255.51 317.383 257.958 314.667 260.456C303.816 270.523 294.093 281.738 285.667 293.904Z" fill="#0D4E32"/>
    <path d="M195.551 198.839C198.929 185.251 204.764 172.394 212.767 160.901C231.981 133.406 258.204 122.023 269.47 117.908" fill="white"/>
    <path d="M195.551 198.839C198.929 185.251 204.764 172.394 212.767 160.901C231.981 133.406 258.204 122.023 269.47 117.908" stroke="#231F20" stroke-width="4" stroke-miterlimit="10"/>
    <path d="M74.5476 282.301C89.6728 271.475 106.927 263.983 125.168 260.321C143.41 256.659 162.221 256.91 180.358 261.059" fill="white"/>
    <path d="M74.5476 282.301C89.6728 271.475 106.927 263.983 125.168 260.321C143.41 256.659 162.221 256.91 180.358 261.059" stroke="#231F20" stroke-width="4" stroke-miterlimit="10"/>
    <path d="M65.4341 261.059C75.1988 252.854 86.6897 246.956 99.0515 243.803C111.413 240.65 124.328 240.324 136.833 242.847" fill="white"/>
    <path d="M65.4341 261.059C75.1988 252.854 86.6897 246.956 99.0515 243.803C111.413 240.65 124.328 240.324 136.833 242.847" stroke="#231F20" stroke-width="4" stroke-miterlimit="10"/>
    <path d="M51.7618 238.802C65.9295 231.741 81.4992 227.938 97.3293 227.672L51.7618 238.802Z" fill="white"/>
    <path d="M51.7618 238.802C65.9295 231.741 81.4992 227.938 97.3293 227.672" stroke="#231F20" stroke-width="4" stroke-miterlimit="10"/>
    <path d="M312.493 122.458C290.342 131.797 270.592 146.021 254.723 164.067C238.853 182.112 227.276 203.511 220.857 226.661" fill="white"/>
    <path d="M312.493 122.458C290.342 131.797 270.592 146.021 254.723 164.067C238.853 182.112 227.276 203.511 220.857 226.661" stroke="#231F20" stroke-width="4" stroke-miterlimit="10"/>
    <path d="M89.2271 201.369C132.416 205.507 173.861 220.47 209.721 244.872L89.2271 201.369Z" fill="white"/>
    <path d="M89.2271 201.369C132.416 205.507 173.861 220.47 209.721 244.872" stroke="#231F20" stroke-width="4" stroke-miterlimit="10"/>
    <path d="M91.7593 177.593C120.351 178.302 147.78 189.047 169.234 207.945L91.7593 177.593Z" fill="white"/>
    <path d="M91.7593 177.593C120.351 178.302 147.78 189.047 169.234 207.945" stroke="#231F20" stroke-width="4" stroke-miterlimit="10"/>
    <path d="M305.162 226.751C297.564 218.044 291.805 207.893 288.231 196.907C284.657 185.921 283.343 174.327 284.366 162.82L266.367 162.279C264.414 170.887 262.791 184.649 267.717 199.76C270.527 208.377 274.086 219.295 284.725 224.661C292.941 228.804 301.313 227.586 305.162 226.751Z" fill="white" stroke="#231F20" stroke-width="4" stroke-miterlimit="10"/>
    <path d="M232.013 216.044C237.314 216.623 247.158 217.714 260.088 219.206C271.33 220.505 278.6 221.397 287.587 225.044C294.112 227.684 297.553 229.085 299.849 232.503C305.753 241.295 298.646 255.428 295.106 263.059C288.35 277.648 280.521 298.96 275.334 329.206L257.711 321.905C259.26 310.09 261.177 297.721 263.537 284.9C266.082 271.081 268.92 257.942 271.933 245.524C265.894 245.883 258.922 246.217 251.162 246.445C236.89 246.852 233.4 246.534 230.635 246.143C225.098 245.361 218.198 244.318 210.683 239.991C206.047 237.323 200.579 234.174 197.435 227.891C192.077 217.181 197.566 205.517 198.56 203.492L232.013 216.044Z" fill="#231F20"/>
    <path d="M250.599 217.71C278.674 216.223 298.018 214.586 309.558 212.491C315.977 211.284 322.586 211.546 328.89 213.257C332.515 214.276 336.747 215.519 339.773 219.193C343.316 223.5 343.165 228.661 343.121 235.567C343.068 244.196 343.969 252.833 343.483 261.446C342.961 270.816 343.292 284.37 347.394 301.999L328.804 301.074C326.798 293.912 324.938 286.232 323.352 278.051C320.371 262.682 318.639 247.097 318.174 231.448C300.142 235.38 283.738 238.614 269.267 241.279C255.032 243.903 246.762 245.218 236.034 243.316C226.793 241.641 217.988 238.11 210.153 232.935L250.599 217.71Z" fill="#231F20"/>
    <path d="M291.877 89.8863C262.808 97.3055 236.579 113.137 216.482 135.394L222.871 141.778C219.477 145.889 216.344 150.209 213.493 154.713C208.827 162.038 204.951 169.836 201.929 177.976C197.813 189.336 195.512 201.272 195.111 213.347L230.725 216.244C230.692 214.614 230.676 212.043 230.843 208.878C230.843 208.878 231.687 192.679 238.13 175.772C243.72 161.105 263.644 132.851 299.237 107.213" fill="white"/>
    <path d="M291.877 89.8863C262.808 97.3055 236.579 113.137 216.482 135.394L222.871 141.778C219.477 145.889 216.344 150.209 213.493 154.713C208.827 162.038 204.951 169.836 201.929 177.976C197.813 189.336 195.512 201.272 195.111 213.347L230.725 216.244C230.692 214.614 230.676 212.043 230.843 208.878C230.843 208.878 231.687 192.679 238.13 175.772C243.72 161.105 263.644 132.851 299.237 107.213" stroke="#231F20" stroke-width="4" stroke-miterlimit="10"/>
    <path d="M223.479 141.244L234.113 152.778L232.813 152.916C235.162 149.033 237.787 145.323 240.666 141.814C249.323 131.321 260.113 122.786 272.321 116.775C268.346 118.889 264.523 121.275 260.879 123.917C253.6 129.189 247.117 135.479 241.628 142.593C238.897 146.133 236.423 149.863 234.223 153.756L233.677 154.721L232.919 153.906L222.28 142.348L223.479 141.244Z" fill="#231F20"/>
    <path d="M269.324 132.644C265.211 141.466 263.668 151.268 264.871 160.926L277.373 162.556L285.936 162.417C285.584 145.067 288.221 127.785 293.732 111.328C290.193 114.021 286.548 116.95 282.837 120.132C277.879 124.373 273.385 128.574 269.324 132.644Z" fill="white" stroke="#231F20" stroke-width="4" stroke-miterlimit="10"/>
    <path d="M329.962 301.074C330.023 302.569 330.105 304.847 330.19 307.617C330.598 321 330.272 322.455 330.753 325.025C332.29 333.255 339.316 338.47 343.598 341.644C346.228 343.595 362.762 355.866 375.289 348.639C381.98 344.773 386.735 335.793 384.537 329.413C383.2 325.543 379.004 323.343 370.608 318.943C360.932 313.871 356.165 313.512 351.998 308.204C350.098 305.736 348.762 302.882 348.083 299.844L329.962 301.074Z" fill="white" stroke="#231F20" stroke-width="4" stroke-miterlimit="10"/>
    <path d="M257.914 316.963C257.572 318.426 257.054 320.63 256.402 323.335C253.254 336.372 252.565 337.671 252.348 340.279C251.659 348.623 257.054 355.491 260.349 359.692C262.388 362.267 275.085 378.465 289.072 374.79C296.55 372.827 303.506 365.42 303.07 358.686C302.801 354.611 299.335 351.373 292.399 344.915C284.407 337.472 279.901 335.867 277.283 329.65C276.104 326.769 275.569 323.665 275.713 320.556L257.914 316.963Z" fill="white" stroke="#231F20" stroke-width="4" stroke-miterlimit="10"/>
    <path d="M267.317 47.0352C264.943 45.0918 262.22 43.6192 259.293 42.6963C255.876 41.6248 252.626 40.6103 250.053 42.2318C246.652 44.3789 246.42 49.8789 247.28 53.3133C248.401 57.7948 251.765 60.2759 253.286 61.3963C258.673 65.3563 264.704 65.1607 266.816 64.9855" fill="white"/>
    <path d="M267.093 47.2878C265.243 45.9759 263.238 44.8976 261.124 44.0774C260.064 43.6824 258.984 43.3411 257.89 43.0548C256.821 42.7302 255.731 42.4798 254.628 42.3052C253.606 42.1203 252.556 42.1635 251.553 42.4315C251.083 42.5696 250.641 42.7904 250.249 43.0833L249.951 43.2993L249.682 43.5559C249.5 43.7273 249.334 43.9141 249.184 44.1141C248.564 44.9648 248.131 45.9365 247.912 46.9659C247.661 48.0337 247.546 49.1287 247.57 50.2252C247.542 52.4364 248.112 54.614 249.221 56.5278C250.419 58.4332 251.999 60.07 253.861 61.3352C255.694 62.6918 257.77 63.6835 259.978 64.2563C261.087 64.5449 262.217 64.7425 263.358 64.847C264.496 64.9163 265.666 65.0833 266.783 64.6596L266.836 65.3115C265.65 65.0752 264.504 65.2422 263.338 65.1404C262.174 65.0746 261.017 64.9125 259.88 64.6556C257.579 64.1591 255.39 63.2405 253.425 61.9463C251.391 60.7037 249.64 59.0478 248.287 57.0859C246.965 55.0406 246.224 52.6749 246.142 50.2415C246.085 49.0233 246.178 47.8027 246.42 46.6074C246.663 45.3621 247.172 44.1838 247.912 43.1526C248.697 42.072 249.812 41.2745 251.088 40.8793C252.322 40.537 253.619 40.484 254.877 40.7245C256.051 40.9371 257.208 41.2353 258.339 41.6167C259.467 41.9587 260.574 42.3668 261.654 42.8389C263.807 43.8221 265.787 45.147 267.517 46.7622L267.093 47.2878Z" fill="#231F20"/>
    <path d="M366.371 43.9633C366.469 39.3433 365.963 31.3337 361.519 23.1855C352.854 7.27217 334.354 0.187357 318.887 0.68032C295.539 1.4218 281.866 19.3477 278.682 23.5359C262.779 44.4481 266.979 68.1551 267.591 71.3207C268.369 75.3214 274.147 102.744 299.478 113.569C301.443 114.408 324.889 123.998 344.768 111.263C349.483 108.21 353.547 104.254 356.724 99.6233" fill="white"/>
    <path d="M366.371 43.9633C366.452 37.9312 365.251 31.9507 362.848 26.4163C360.394 20.9316 356.702 16.0888 352.063 12.267C347.435 8.46649 342.123 5.58343 336.413 3.77257C330.723 1.93111 324.754 1.1037 318.777 1.32813C312.82 1.59162 306.97 2.99833 301.545 5.47146C296.135 7.98592 291.176 11.3718 286.866 15.4937C284.698 17.533 282.674 19.7206 280.81 22.0407C278.933 24.3595 277.226 26.8103 275.701 29.3741C272.667 34.5035 270.448 40.0725 269.124 45.8822C267.765 51.6889 267.216 57.6556 267.493 63.6126C267.607 66.5827 267.975 69.5377 268.594 72.4452C269.239 75.351 270.083 78.2095 271.118 81.0007C273.155 86.6119 275.978 91.9065 279.501 96.7267C283.025 101.539 287.362 105.7 292.317 109.022C294.805 110.667 297.437 112.085 300.179 113.259C302.96 114.362 305.823 115.247 308.742 115.903C314.578 117.28 320.599 117.7 326.569 117.146C329.55 116.862 332.493 116.272 335.353 115.386C338.214 114.486 340.965 113.269 343.557 111.76C346.16 110.256 348.584 108.461 350.782 106.411C352.994 104.363 354.988 102.094 356.736 99.6396C355.051 102.149 353.112 104.478 350.95 106.59C348.777 108.702 346.373 110.561 343.781 112.131C341.186 113.712 338.424 115.001 335.544 115.973C332.656 116.929 329.677 117.588 326.655 117.94C323.631 118.288 320.583 118.363 317.546 118.164C316.029 118.071 314.512 117.92 313.007 117.704C311.503 117.488 310.002 117.231 308.522 116.889C305.54 116.258 302.613 115.393 299.767 114.302C296.942 113.136 294.228 111.72 291.657 110.069C289.083 108.412 286.669 106.52 284.443 104.419C282.231 102.309 280.203 100.015 278.38 97.5618C274.756 92.6469 271.847 87.244 269.74 81.5141C268.666 78.6591 267.79 75.7338 267.118 72.7589C266.47 69.7691 266.079 66.7298 265.947 63.6737C265.637 57.571 266.173 51.4548 267.542 45.4992C268.929 39.5373 271.232 33.8258 274.368 28.5674C275.941 25.9524 277.7 23.454 279.632 21.0915C281.546 18.7155 283.625 16.4773 285.854 14.3937C290.297 10.1818 295.402 6.72848 300.966 4.17183C306.557 1.63538 312.598 0.237901 318.736 0.0610902C324.85 -0.0901283 330.943 0.836645 336.735 2.79887C342.536 4.71353 347.915 7.72305 352.581 11.6641C357.216 15.6356 360.868 20.6265 363.248 26.2452C363.833 27.6439 364.342 29.0733 364.773 30.527C365.191 31.9815 365.533 33.457 365.796 34.9474C366.289 37.926 366.481 40.9464 366.371 43.9633Z" fill="#231F20"/>
    <path d="M347.308 72.7059C349.376 72.217 357.262 70.5996 364.638 75.13C366.677 76.3807 371.913 79.6115 373.132 85.8652C373.299 86.737 374.314 91.9763 371.224 95.9078C366.865 101.477 357.196 100.862 351.121 97.6393C344.829 94.3026 342.444 88.2037 341.763 86.2115" fill="white"/>
    <path d="M347.308 72.7059C350.531 71.7826 353.911 71.5398 357.233 71.9929C358.908 72.2282 360.551 72.6575 362.126 73.2722L363.293 73.7814C363.7 73.9485 364.051 74.1888 364.426 74.364C364.801 74.5392 365.168 74.7714 365.523 74.9914C365.878 75.2114 366.241 75.4355 366.595 75.6718C367.305 76.142 367.985 76.6535 368.634 77.2037C369.293 77.7553 369.909 78.3559 370.477 79.0003C371.629 80.3063 372.55 81.7983 373.201 83.4125C373.828 85.0435 374.166 86.7708 374.2 88.5174C374.268 90.2786 373.991 92.0361 373.385 93.6914C372.752 95.3782 371.684 96.8679 370.29 98.0099C368.9 99.1184 367.284 99.9084 365.556 100.324C363.874 100.738 362.14 100.901 360.41 100.809C358.701 100.73 357.008 100.457 355.362 99.994C353.72 99.5292 352.14 98.8685 350.656 98.0262C349.182 97.1715 347.837 96.1126 346.66 94.8811C344.349 92.4336 342.67 89.4608 341.767 86.2196C342.983 89.2698 344.851 92.0184 347.239 94.274C349.629 96.4506 352.54 97.9745 355.692 98.6985C357.25 99.0793 358.843 99.2937 360.446 99.3381C362.031 99.3765 363.613 99.1969 365.148 98.8044C366.648 98.4312 368.05 97.7361 369.254 96.7673C369.836 96.2832 370.352 95.7243 370.787 95.1051C371.233 94.4905 371.598 93.8209 371.872 93.1129C372.415 91.6547 372.67 90.1051 372.622 88.5499C372.604 86.9811 372.329 85.4259 371.807 83.9462C370.722 81.0007 368.516 78.544 365.902 76.67C365.573 76.4337 365.239 76.2055 364.899 75.9855C364.557 75.7574 364.21 75.5414 363.863 75.3418C363.517 75.1422 363.178 74.9344 362.815 74.7429L361.731 74.2051C360.249 73.5452 358.698 73.052 357.107 72.7344C353.872 72.1076 350.547 72.0979 347.308 72.7059Z" fill="#231F20"/>
    <path d="M320.796 55.22C323.093 55.22 324.955 53.0877 324.955 50.4574C324.955 47.8271 323.093 45.6948 320.796 45.6948C318.498 45.6948 316.636 47.8271 316.636 50.4574C316.636 53.0877 318.498 55.22 320.796 55.22Z" fill="#231F20"/>
    <path d="M365.417 62.1418C367.667 62.1418 369.491 59.8946 369.491 57.1226C369.491 54.3505 367.667 52.1033 365.417 52.1033C363.167 52.1033 361.343 54.3505 361.343 57.1226C361.343 59.8946 363.167 62.1418 365.417 62.1418Z" fill="#231F20"/>
    <path d="M325.819 101.567L346.268 101.681L325.819 101.567Z" fill="white"/>
    <path d="M325.819 101.567C327.508 101.258 329.214 101.052 330.928 100.951C332.633 100.84 334.337 100.793 336.042 100.809C337.746 100.825 339.449 100.893 341.151 101.013C342.866 101.135 344.572 101.358 346.26 101.681C344.57 101.987 342.862 102.19 341.147 102.288C339.443 102.396 337.738 102.447 336.034 102.438C334.329 102.43 332.625 102.362 330.92 102.235C329.208 102.116 327.504 101.893 325.819 101.567Z" fill="#231F20"/>
    <path d="M259.639 255.73L259.484 255.477C258.824 254.459 256.63 251.961 248.45 249.826C240.271 247.692 234.7 246.249 228.119 248.225C225.229 245.639 222.622 242.753 220.343 239.617C220.343 239.617 213.003 230.096 209.215 219.58C204.522 206.482 210.231 178.253 230.696 150.272L219.014 137.928C216.061 141.388 213.296 145.004 210.732 148.761C202.243 161.207 187.657 182.449 189.977 206.934C192.305 231.538 210.129 247.952 217.966 254.194C214.747 257.312 212.181 261.038 210.418 265.157C208.252 270.734 207.567 276.776 208.428 282.696C208.893 285.658 209.599 287.752 211.381 289.015C211.678 289.227 215.177 291.626 218.525 290.115C219.929 289.453 221.017 288.267 221.554 286.811C222.079 288.762 223.224 290.491 224.816 291.736C225.579 292.352 228.078 294.36 230.994 294.132C234.664 293.851 238.427 290.111 239.398 284.888C240.548 286.379 242.061 287.55 243.794 288.29C244.475 288.583 249.237 290.644 252.764 288.664C254.567 287.65 255.305 285.861 255.57 285.242C257.507 280.708 254.554 273.937 248.638 267.862C248.882 268.009 253.604 270.747 258.016 268.298C258.343 268.119 261.792 266.147 262.135 262.847C262.379 260.333 260.793 257.657 259.639 255.73Z" fill="white" stroke="#231F20" stroke-width="4" stroke-miterlimit="10"/>
    <path d="M222.631 269.15C221.056 274.892 220.689 280.899 221.554 286.79L222.631 269.15Z" fill="white"/>
    <path d="M222.631 269.15C221.332 274.908 221.241 280.873 222.362 286.668L220.731 286.904C220.132 280.919 220.779 274.874 222.631 269.15Z" fill="#231F20"/>
    <path d="M236.299 265.862C235.923 272.346 236.974 278.833 239.378 284.867L236.299 265.862Z" fill="white"/>
    <path d="M236.299 265.862C236.197 272.303 237.507 278.688 240.136 284.57L238.619 285.185C236.443 278.991 235.651 272.395 236.299 265.862Z" fill="#231F20"/>
    </svg>
    