<svg width="238" height="32" viewBox="0 0 238 32" fill="none" xmlns="http://www.w3.org/2000/svg">
    <path d="M0 5.18928C1.67837 4.82652 3.36399 4.50004 5.05687 4.20983C6.74975 3.91962 8.44989 3.67778 10.1573 3.48431C13.5724 3.08973 17.0057 2.87179 20.4433 2.83134C27.326 2.72573 34.198 3.40977 40.9247 4.87005C41.7663 5.05143 42.5971 5.26909 43.4332 5.47405C43.8504 5.58106 44.2621 5.7044 44.6775 5.81867C45.0929 5.93294 45.5064 6.04902 45.9163 6.18143C47.5669 6.67115 49.1812 7.25338 50.7936 7.87551C53.9904 9.15139 57.1084 10.6165 60.1311 12.2631C63.1655 13.8792 66.142 15.5914 69.1855 17.1604C72.217 18.7547 75.337 20.1748 78.5302 21.4137C81.7277 22.6396 84.9989 23.6634 88.3248 24.479C91.6488 25.3013 95.0179 25.9293 98.4149 26.3599C105.209 27.2269 112.091 27.3104 118.922 26.8079C125.752 26.3055 132.54 25.2027 139.236 23.7245C145.933 22.2462 152.546 20.4034 159.125 18.4463C160.771 17.9584 162.418 17.4723 164.054 16.9681C165.691 16.4639 167.319 15.9324 168.952 15.381C172.198 14.2794 175.418 13.0987 178.61 11.8387C181.803 10.5871 184.969 9.26307 188.125 7.91542C191.281 6.56777 194.428 5.19472 197.619 3.90874C199.215 3.27028 200.826 2.65722 202.464 2.12033C204.101 1.56515 205.78 1.1406 207.484 0.850672C208.343 0.712179 209.211 0.638813 210.081 0.631202C210.957 0.627349 211.83 0.722883 212.684 0.915968C213.54 1.11661 214.364 1.4359 215.131 1.86459C215.894 2.29831 216.597 2.83071 217.221 3.44803C218.447 4.69683 219.414 6.17639 220.065 7.80115C220.728 9.40599 221.17 11.0939 221.378 12.8181C221.591 14.5389 221.591 16.2794 221.378 18.0001C221.167 19.7246 220.705 21.4089 220.005 22.999C219.3 24.5933 218.301 26.0401 217.059 27.2632C215.833 28.4964 214.41 29.5159 212.848 30.2796C212.066 30.663 211.248 30.9668 210.406 31.1865C209.561 31.4022 208.693 31.5149 207.821 31.522C206.067 31.5256 204.345 31.0468 202.844 30.1381C201.362 29.2255 200.074 28.0291 199.055 26.6175C198.028 25.2187 197.241 23.6579 196.728 21.9996C196.468 21.1728 196.291 20.3221 196.2 19.4602C196.18 19.2444 196.161 19.0286 196.155 18.8127C196.15 18.5969 196.144 18.3774 196.155 18.1616C196.166 17.9457 196.177 17.7263 196.19 17.5104L196.228 17.1857L196.248 17.0243L196.282 16.8647L196.414 16.2244C196.473 16.0158 196.543 15.8091 196.609 15.6023C196.673 15.3944 196.751 15.1914 196.844 14.9947C196.925 14.7932 197.016 14.5964 197.118 14.4052L197.43 13.8338C197.543 13.6525 197.67 13.4711 197.793 13.2897L197.974 13.0194L198.176 12.7637L198.578 12.254C199.728 10.9643 201.048 9.83665 202.502 8.90213C203.946 7.96438 205.462 7.142 207.036 6.44262C210.184 5.05632 213.445 3.94397 216.783 3.11792C220.114 2.27525 223.485 1.60447 226.884 1.10823C230.282 0.61125 233.699 0.24849 237.123 0C233.701 0.266628 230.285 0.643899 226.892 1.15902C223.498 1.67166 220.132 2.35818 216.809 3.21587C213.476 4.05466 210.223 5.17914 207.083 6.57684C205.521 7.27988 204.017 8.10531 202.585 9.04542C201.151 9.97758 199.85 11.0996 198.718 12.381L198.324 12.8834L198.13 13.1355L197.949 13.4022C197.833 13.5835 197.71 13.754 197.601 13.9354L197.298 14.4959C197.199 14.6839 197.111 14.877 197.033 15.0745C196.944 15.2661 196.868 15.4637 196.806 15.6658C196.745 15.8689 196.677 16.0703 196.625 16.2734L196.498 16.8955L196.467 17.0515L196.449 17.2093L196.411 17.5231C196.402 17.7353 196.38 17.9457 196.382 18.1579C196.384 18.3702 196.382 18.5824 196.382 18.7946C196.382 19.0068 196.411 19.2172 196.431 19.4294C196.524 20.2751 196.701 21.1094 196.96 21.9198C197.473 23.5486 198.253 25.081 199.268 26.4543C200.268 27.8324 201.53 28.9998 202.982 29.8896C204.439 30.7662 206.109 31.2255 207.809 31.2173C209.512 31.1841 211.186 30.7675 212.706 29.9984C214.233 29.2467 215.623 28.245 216.82 27.0347C218.03 25.8386 219.002 24.4228 219.682 22.8629C220.363 21.3044 220.811 19.6544 221.013 17.9657C221.218 16.2743 221.211 14.5641 220.993 12.8743C220.787 11.1854 220.35 9.53274 219.695 7.96258C219.062 6.38493 218.122 4.94894 216.929 3.73824C216.329 3.14757 215.655 2.63836 214.922 2.22372C214.188 1.81678 213.399 1.51458 212.581 1.32589C210.948 0.94499 209.218 1.0121 207.546 1.28054C205.865 1.57207 204.21 1.99662 202.596 2.5502C200.963 3.09434 199.375 3.70196 197.784 4.34042C194.604 5.62096 191.461 7.00308 188.303 8.35073C185.145 9.69838 181.977 11.0315 178.779 12.2885C175.581 13.5455 172.356 14.7407 169.1 15.8472C167.473 16.4022 165.84 16.9342 164.203 17.4433C162.56 17.9512 160.915 18.4373 159.27 18.9288C152.687 20.8913 146.065 22.7487 139.351 24.2324C132.636 25.716 125.83 26.8315 118.965 27.343C115.534 27.597 112.091 27.7058 108.648 27.6387C105.206 27.5697 101.769 27.316 98.3532 26.8787C94.937 26.44 91.5491 25.8029 88.2069 24.9706C84.8612 24.146 81.5706 23.1126 78.3543 21.8762C75.1464 20.6255 72.0125 19.1927 68.9679 17.5848C65.9153 15.9977 62.9388 14.2837 59.9243 12.6512C56.9241 10.9961 53.8279 9.52126 50.6521 8.23465C49.0596 7.60889 47.4508 7.02122 45.8111 6.52605C45.4048 6.39364 44.9931 6.27574 44.5796 6.16329C44.166 6.05083 43.7579 5.92387 43.3444 5.81504C42.5136 5.60645 41.6884 5.37973 40.8504 5.20016C37.5067 4.44281 34.1202 3.88919 30.7094 3.54235C27.2994 3.18185 23.8724 3.00505 20.4433 3.01272C13.573 3.04919 6.72395 3.7784 0 5.18928Z" fill="#231F20"/>
    </svg>
    